<svg width="1906" height="1045" viewBox="0 0 1906 1045" fill="none" xmlns="http://www.w3.org/2000/svg">
<g clip-path="url(#clip0_224_4975)">
<rect width="1906" height="1045" fill="url(#paint0_linear_224_4975)"/>
<path fill-rule="evenodd" clip-rule="evenodd" d="M141.447 54.1887C188.317 -12.4231 172.283 -104.423 105.556 -151.286C38.8285 -198.149 -53.2495 -182.077 -100.12 -115.465C-146.99 -48.8537 -130.955 43.1467 -64.2282 90.0097C2.49898 136.873 94.5769 120.8 141.447 54.1887ZM208.961 101.604C282.065 -2.29167 257.024 -145.722 153.031 -218.758C49.0372 -291.793 -94.5288 -266.776 -167.633 -162.881C-240.737 -58.9851 -215.697 84.4456 -111.703 157.481C-7.70976 230.516 135.856 205.499 208.961 101.604Z" fill="url(#paint1_linear_224_4975)"/>
<path fill-rule="evenodd" clip-rule="evenodd" d="M1927.72 897C1896.54 897 1871.11 922.319 1871.09 953.736C1871.07 985.153 1896.48 1010.47 1927.66 1010.47C1958.84 1010.47 1984.28 985.153 1984.3 953.736C1984.31 922.319 1958.9 897 1927.72 897ZM1927.78 785C1834.66 785 1759.14 860.546 1759.09 953.736C1759.04 1046.93 1834.49 1122.47 1927.6 1122.47C2020.72 1122.47 2096.25 1046.93 2096.3 953.736C2096.35 860.546 2020.9 785 1927.78 785Z" fill="url(#paint2_linear_224_4975)"/>
<path fill-rule="evenodd" clip-rule="evenodd" d="M1824.75 250.998L1928.64 173L1927.13 171L1823.25 248.999L1824.75 250.998Z" fill="url(#paint3_linear_224_4975)"/>
<path fill-rule="evenodd" clip-rule="evenodd" d="M1824.75 264.899L1928.64 186.883L1927.13 184.884L1823.25 262.9L1824.75 264.899Z" fill="url(#paint4_linear_224_4975)"/>
<path fill-rule="evenodd" clip-rule="evenodd" d="M1824.75 278.799L1928.64 200.783L1927.13 198.784L1823.25 276.8L1824.75 278.799Z" fill="url(#paint5_linear_224_4975)"/>
<path fill-rule="evenodd" clip-rule="evenodd" d="M1824.75 292.685L1928.64 214.687L1927.13 212.688L1823.25 290.686L1824.75 292.685Z" fill="url(#paint6_linear_224_4975)"/>
<path fill-rule="evenodd" clip-rule="evenodd" d="M1824.75 306.586L1928.64 228.57L1927.13 226.571L1823.25 304.587L1824.75 306.586Z" fill="url(#paint7_linear_224_4975)"/>
<path fill-rule="evenodd" clip-rule="evenodd" d="M1824.75 320.485L1928.64 242.469L1927.13 240.47L1823.25 318.486L1824.75 320.485Z" fill="url(#paint8_linear_224_4975)"/>
<path fill-rule="evenodd" clip-rule="evenodd" d="M1824.75 334.369L1928.64 256.37L1927.13 254.371L1823.25 332.369L1824.75 334.369Z" fill="url(#paint9_linear_224_4975)"/>
<path fill-rule="evenodd" clip-rule="evenodd" d="M1824.75 348.255L1928.64 270.256L1927.13 268.257L1823.25 346.256L1824.75 348.255Z" fill="url(#paint10_linear_224_4975)"/>
<path fill-rule="evenodd" clip-rule="evenodd" d="M1824.75 362.156L1928.64 284.14L1927.13 282.141L1823.25 360.157L1824.75 362.156Z" fill="url(#paint11_linear_224_4975)"/>
<path fill-rule="evenodd" clip-rule="evenodd" d="M1824.75 376.056L1928.64 298.04L1927.13 296.041L1823.25 374.057L1824.75 376.056Z" fill="url(#paint12_linear_224_4975)"/>
<path d="M84.6045 936L-30.0001 1022.05" stroke="#0097D8" stroke-width="2.5" stroke-miterlimit="10"/>
<path d="M84.6045 951.316L-30.0001 1037.38" stroke="#0097D8" stroke-width="2.5" stroke-miterlimit="10"/>
<path d="M84.6045 966.653L-30.0001 1052.72" stroke="#0097D8" stroke-width="2.5" stroke-miterlimit="10"/>
<path d="M84.6045 981.987L-30.0001 1068.03" stroke="#0097D8" stroke-width="2.5" stroke-miterlimit="10"/>
<path d="M84.6045 997.304L-30.0001 1083.37" stroke="#0097D8" stroke-width="2.5" stroke-miterlimit="10"/>
<path d="M84.6045 1012.64L-30.0001 1098.71" stroke="#0097D8" stroke-width="2.5" stroke-miterlimit="10"/>
<path d="M84.6045 1027.97L-30.0001 1114.02" stroke="#0097D8" stroke-width="2.5" stroke-miterlimit="10"/>
<path d="M84.6045 1043.29L-30.0001 1129.34" stroke="#0097D8" stroke-width="2.5" stroke-miterlimit="10"/>
<path d="M1497.6 -82.0133L1383 4.03398" stroke="#0097D8" stroke-width="2.5" stroke-miterlimit="10"/>
<path d="M1497.6 -66.6958L1383 19.3709" stroke="#0097D8" stroke-width="2.5" stroke-miterlimit="10"/>
<path d="M1497.6 -51.3616L1383 34.7052" stroke="#0097D8" stroke-width="2.5" stroke-miterlimit="10"/>
<path d="M1497.6 -36.0265L1383 50.0207" stroke="#0097D8" stroke-width="2.5" stroke-miterlimit="10"/>
<path d="M1497.6 -20.709L1383 65.3383" stroke="#0097D8" stroke-width="2.5" stroke-miterlimit="10"/>
<path d="M1497.6 -5.39343L1383 80.6734" stroke="#0097D8" stroke-width="2.5" stroke-miterlimit="10"/>
<path d="M1497.6 9.9436L1383 96.0103" stroke="#0097D8" stroke-width="2.5" stroke-miterlimit="10"/>
<path d="M54 450.121V465" stroke="#0097D8" stroke-width="2" stroke-linecap="round"/>
<path d="M54 411V425.879" stroke="#0097D8" stroke-width="2" stroke-linecap="round"/>
<path d="M41.8789 438L27.0001 438" stroke="#0097D8" stroke-width="2" stroke-linecap="round"/>
<path d="M81 438L66.1212 438" stroke="#0097D8" stroke-width="2" stroke-linecap="round"/>
<path d="M69.1689 422.646L62.7018 429.113" stroke="#0097D8" stroke-width="2" stroke-linecap="round"/>
<path d="M45.2983 446.517L38.8312 452.984" stroke="#0097D8" stroke-width="2" stroke-linecap="round"/>
<path d="M69.1689 452.984L62.7018 446.517" stroke="#0097D8" stroke-width="2" stroke-linecap="round"/>
<path d="M45.2983 429.113L38.8312 422.646" stroke="#0097D8" stroke-width="2" stroke-linecap="round"/>
<path d="M1801 90.1212V105" stroke="url(#paint13_linear_224_4975)" stroke-width="2" stroke-linecap="round"/>
<path d="M1801 51V65.8788" stroke="url(#paint14_linear_224_4975)" stroke-width="2" stroke-linecap="round"/>
<path d="M1788.88 78L1774 78" stroke="url(#paint15_linear_224_4975)" stroke-width="2" stroke-linecap="round"/>
<path d="M1828 78L1813.12 78" stroke="url(#paint16_linear_224_4975)" stroke-width="2" stroke-linecap="round"/>
<path d="M1816.17 62.6461L1809.7 69.1133" stroke="url(#paint17_linear_224_4975)" stroke-width="2" stroke-linecap="round"/>
<path d="M1792.3 86.5168L1785.83 92.984" stroke="url(#paint18_linear_224_4975)" stroke-width="2" stroke-linecap="round"/>
<path d="M1816.17 92.9839L1809.7 86.5167" stroke="url(#paint19_linear_224_4975)" stroke-width="2" stroke-linecap="round"/>
<path d="M1792.3 69.1133L1785.83 62.6461" stroke="url(#paint20_linear_224_4975)" stroke-width="2" stroke-linecap="round"/>
<path fill-rule="evenodd" clip-rule="evenodd" d="M66.3991 657.671C66.7524 658.183 66.7524 658.861 66.3991 659.373L54.3215 676.895C53.8514 677.578 52.9173 677.749 52.2352 677.279C51.5531 676.809 51.3813 675.875 51.8514 675.193L63.3423 658.522L51.8514 641.851C51.3813 641.169 51.5531 640.235 52.2352 639.765C52.9173 639.295 53.8514 639.467 54.3215 640.149L66.3991 657.671Z" fill="url(#paint21_linear_224_4975)"/>
<path fill-rule="evenodd" clip-rule="evenodd" d="M82.235 657.671C82.5883 658.183 82.5883 658.861 82.235 659.373L70.1575 676.895C69.6873 677.578 68.7532 677.749 68.0711 677.279C67.389 676.809 67.2172 675.875 67.6874 675.193L79.1782 658.522L67.6874 641.851C67.2172 641.169 67.389 640.235 68.0711 639.765C68.7532 639.295 69.6873 639.467 70.1575 640.149L82.235 657.671Z" fill="url(#paint22_linear_224_4975)"/>
<path fill-rule="evenodd" clip-rule="evenodd" d="M50.5873 657.671C50.9406 658.183 50.9406 658.861 50.5873 659.373L38.5097 676.895C38.0396 677.578 37.1055 677.749 36.4234 677.279C35.7413 676.809 35.5695 675.875 36.0397 675.193L47.5305 658.522L36.0397 641.851C35.5695 641.169 35.7413 640.235 36.4234 639.765C37.1055 639.295 38.0396 639.467 38.5097 640.149L50.5873 657.671Z" fill="url(#paint23_linear_224_4975)"/>
<path fill-rule="evenodd" clip-rule="evenodd" d="M34.7758 657.671C35.1291 658.183 35.1291 658.861 34.7758 659.373L22.6982 676.895C22.2281 677.578 21.294 677.749 20.6119 677.279C19.9298 676.809 19.758 675.875 20.2281 675.193L31.719 658.522L20.2282 641.851C19.758 641.169 19.9298 640.235 20.6119 639.765C21.294 639.295 22.2281 639.467 22.6982 640.149L34.7758 657.671Z" fill="url(#paint24_linear_224_4975)"/>
<path fill-rule="evenodd" clip-rule="evenodd" d="M18.9548 657.671C19.308 658.183 19.308 658.861 18.9548 659.373L6.87718 676.895C6.40703 677.578 5.47295 677.749 4.79086 677.279C4.10877 676.809 3.93695 675.875 4.4071 675.193L15.8979 658.522L4.40711 641.851C3.93695 641.169 4.10877 640.235 4.79086 639.765C5.47295 639.295 6.40703 639.467 6.87718 640.149L18.9548 657.671Z" fill="url(#paint25_linear_224_4975)"/>
<path fill-rule="evenodd" clip-rule="evenodd" d="M3.13347 657.671C3.48676 658.183 3.48676 658.861 3.13347 659.373L-8.94411 676.895C-9.41426 677.578 -10.3483 677.749 -11.0304 677.279C-11.7125 676.809 -11.8843 675.875 -11.4142 675.193L0.0766293 658.522L-11.4142 641.851C-11.8843 641.169 -11.7125 640.235 -11.0304 639.765C-10.3483 639.295 -9.41426 639.467 -8.94411 640.149L3.13347 657.671Z" fill="url(#paint26_linear_224_4975)"/>
<path d="M231 930.121V945" stroke="#013A82" stroke-width="2" stroke-linecap="round"/>
<path d="M231 891V905.879" stroke="#013A82" stroke-width="2" stroke-linecap="round"/>
<path d="M218.879 918L204 918" stroke="#013A82" stroke-width="2" stroke-linecap="round"/>
<path d="M258 918L243.121 918" stroke="#013A82" stroke-width="2" stroke-linecap="round"/>
<path d="M246.169 902.646L239.702 909.113" stroke="#013A82" stroke-width="2" stroke-linecap="round"/>
<path d="M222.298 926.517L215.831 932.984" stroke="#013A82" stroke-width="2" stroke-linecap="round"/>
<path d="M246.169 932.984L239.702 926.517" stroke="#013A82" stroke-width="2" stroke-linecap="round"/>
<path d="M222.298 909.113L215.831 902.646" stroke="#013A82" stroke-width="2" stroke-linecap="round"/>
</g>
<defs>
<linearGradient id="paint0_linear_224_4975" x1="515.5" y1="-56.5" x2="2052.31" y2="1681.76" gradientUnits="userSpaceOnUse">
<stop stop-color="#013C8F"/>
<stop offset="1" stop-color="#0085FF"/>
</linearGradient>
<linearGradient id="paint1_linear_224_4975" x1="229.5" y1="137.5" x2="-24.5761" y2="-3.86313" gradientUnits="userSpaceOnUse">
<stop stop-color="#E9366E"/>
<stop offset="1" stop-color="#F29A0B"/>
</linearGradient>
<linearGradient id="paint2_linear_224_4975" x1="1859.49" y1="799.504" x2="2139.64" y2="953.827" gradientUnits="userSpaceOnUse">
<stop stop-color="#E9366E"/>
<stop offset="1" stop-color="#F29A0B"/>
</linearGradient>
<linearGradient id="paint3_linear_224_4975" x1="1854.6" y1="247.56" x2="1929.36" y2="193.315" gradientUnits="userSpaceOnUse">
<stop stop-color="#E9366E"/>
<stop offset="1" stop-color="#F29A0B"/>
</linearGradient>
<linearGradient id="paint4_linear_224_4975" x1="1854.6" y1="261.46" x2="1929.38" y2="207.219" gradientUnits="userSpaceOnUse">
<stop stop-color="#E9366E"/>
<stop offset="1" stop-color="#F29A0B"/>
</linearGradient>
<linearGradient id="paint5_linear_224_4975" x1="1854.6" y1="275.36" x2="1929.38" y2="221.119" gradientUnits="userSpaceOnUse">
<stop stop-color="#E9366E"/>
<stop offset="1" stop-color="#F29A0B"/>
</linearGradient>
<linearGradient id="paint6_linear_224_4975" x1="1854.6" y1="289.247" x2="1929.36" y2="235.002" gradientUnits="userSpaceOnUse">
<stop stop-color="#E9366E"/>
<stop offset="1" stop-color="#F29A0B"/>
</linearGradient>
<linearGradient id="paint7_linear_224_4975" x1="1854.6" y1="303.147" x2="1929.38" y2="248.906" gradientUnits="userSpaceOnUse">
<stop stop-color="#E9366E"/>
<stop offset="1" stop-color="#F29A0B"/>
</linearGradient>
<linearGradient id="paint8_linear_224_4975" x1="1854.6" y1="317.046" x2="1929.38" y2="262.805" gradientUnits="userSpaceOnUse">
<stop stop-color="#E9366E"/>
<stop offset="1" stop-color="#F29A0B"/>
</linearGradient>
<linearGradient id="paint9_linear_224_4975" x1="1854.6" y1="330.93" x2="1929.36" y2="276.686" gradientUnits="userSpaceOnUse">
<stop stop-color="#E9366E"/>
<stop offset="1" stop-color="#F29A0B"/>
</linearGradient>
<linearGradient id="paint10_linear_224_4975" x1="1854.6" y1="344.817" x2="1929.36" y2="290.572" gradientUnits="userSpaceOnUse">
<stop stop-color="#E9366E"/>
<stop offset="1" stop-color="#F29A0B"/>
</linearGradient>
<linearGradient id="paint11_linear_224_4975" x1="1854.6" y1="358.717" x2="1929.38" y2="304.476" gradientUnits="userSpaceOnUse">
<stop stop-color="#E9366E"/>
<stop offset="1" stop-color="#F29A0B"/>
</linearGradient>
<linearGradient id="paint12_linear_224_4975" x1="1854.6" y1="372.617" x2="1929.38" y2="318.376" gradientUnits="userSpaceOnUse">
<stop stop-color="#E9366E"/>
<stop offset="1" stop-color="#F29A0B"/>
</linearGradient>
<linearGradient id="paint13_linear_224_4975" x1="1801.5" y1="90.1212" x2="1801.5" y2="105" gradientUnits="userSpaceOnUse">
<stop stop-color="#E9366E"/>
<stop offset="1" stop-color="#F39C09"/>
</linearGradient>
<linearGradient id="paint14_linear_224_4975" x1="1801.5" y1="51" x2="1801.5" y2="65.8788" gradientUnits="userSpaceOnUse">
<stop stop-color="#E9366E"/>
<stop offset="1" stop-color="#F39C09"/>
</linearGradient>
<linearGradient id="paint15_linear_224_4975" x1="1788.88" y1="78.5" x2="1774" y2="78.5" gradientUnits="userSpaceOnUse">
<stop stop-color="#E9366E"/>
<stop offset="1" stop-color="#F39C09"/>
</linearGradient>
<linearGradient id="paint16_linear_224_4975" x1="1828" y1="78.5" x2="1813.12" y2="78.5" gradientUnits="userSpaceOnUse">
<stop stop-color="#E9366E"/>
<stop offset="1" stop-color="#F39C09"/>
</linearGradient>
<linearGradient id="paint17_linear_224_4975" x1="1816.52" y1="62.9997" x2="1810.06" y2="69.4668" gradientUnits="userSpaceOnUse">
<stop stop-color="#E9366E"/>
<stop offset="1" stop-color="#F39C09"/>
</linearGradient>
<linearGradient id="paint18_linear_224_4975" x1="1792.65" y1="86.8704" x2="1786.18" y2="93.3376" gradientUnits="userSpaceOnUse">
<stop stop-color="#E9366E"/>
<stop offset="1" stop-color="#F39C09"/>
</linearGradient>
<linearGradient id="paint19_linear_224_4975" x1="1815.82" y1="93.3374" x2="1809.35" y2="86.8703" gradientUnits="userSpaceOnUse">
<stop stop-color="#E9366E"/>
<stop offset="1" stop-color="#F39C09"/>
</linearGradient>
<linearGradient id="paint20_linear_224_4975" x1="1791.94" y1="69.4668" x2="1785.48" y2="62.9997" gradientUnits="userSpaceOnUse">
<stop stop-color="#E9366E"/>
<stop offset="1" stop-color="#F39C09"/>
</linearGradient>
<linearGradient id="paint21_linear_224_4975" x1="52.2343" y1="666.226" x2="71.766" y2="652.172" gradientUnits="userSpaceOnUse">
<stop stop-color="#E9366E"/>
<stop offset="1" stop-color="#F29A0B"/>
</linearGradient>
<linearGradient id="paint22_linear_224_4975" x1="68.0703" y1="666.226" x2="87.6019" y2="652.172" gradientUnits="userSpaceOnUse">
<stop stop-color="#E9366E"/>
<stop offset="1" stop-color="#F29A0B"/>
</linearGradient>
<linearGradient id="paint23_linear_224_4975" x1="36.4226" y1="666.226" x2="55.9542" y2="652.172" gradientUnits="userSpaceOnUse">
<stop stop-color="#E9366E"/>
<stop offset="1" stop-color="#F29A0B"/>
</linearGradient>
<linearGradient id="paint24_linear_224_4975" x1="20.611" y1="666.226" x2="40.1427" y2="652.172" gradientUnits="userSpaceOnUse">
<stop stop-color="#E9366E"/>
<stop offset="1" stop-color="#F29A0B"/>
</linearGradient>
<linearGradient id="paint25_linear_224_4975" x1="4.79" y1="666.226" x2="24.3216" y2="652.172" gradientUnits="userSpaceOnUse">
<stop stop-color="#E9366E"/>
<stop offset="1" stop-color="#F29A0B"/>
</linearGradient>
<linearGradient id="paint26_linear_224_4975" x1="-11.0313" y1="666.226" x2="8.50034" y2="652.172" gradientUnits="userSpaceOnUse">
<stop stop-color="#E9366E"/>
<stop offset="1" stop-color="#F29A0B"/>
</linearGradient>
<clipPath id="clip0_224_4975">
<rect width="1906" height="1045" fill="white"/>
</clipPath>
</defs>
</svg>
