<svg width="147" height="260" viewBox="0 0 147 260" fill="none" xmlns="http://www.w3.org/2000/svg">
<path fill-rule="evenodd" clip-rule="evenodd" d="M168.723 112C137.544 112 112.106 137.319 112.089 168.736C112.072 200.153 137.484 225.472 168.663 225.472C199.842 225.472 225.281 200.153 225.297 168.736C225.314 137.319 199.902 112 168.723 112ZM168.782 1.40494e-05C75.6647 2.219e-05 0.13819 75.5457 0.0890196 168.736C0.0398497 261.926 75.4867 337.472 168.604 337.472C261.722 337.472 337.248 261.926 337.297 168.736C337.347 75.5457 261.9 5.90881e-06 168.782 1.40494e-05Z" fill="url(#paint0_linear_264_10232)"/>
<defs>
<linearGradient id="paint0_linear_264_10232" x1="100.49" y1="14.5037" x2="380.637" y2="168.827" gradientUnits="userSpaceOnUse">
<stop stop-color="#E9366E"/>
<stop offset="1" stop-color="#F29A0B"/>
</linearGradient>
</defs>
</svg>
