<svg width="251" height="257" viewBox="0 0 251 257" fill="none" xmlns="http://www.w3.org/2000/svg">
<mask id="mask0_141_8597" style="mask-type:alpha" maskUnits="userSpaceOnUse" x="0" y="0" width="251" height="257">
<rect y="0.502335" width="250.956" height="255.759" fill="#E42352"/>
</mask>
<g mask="url(#mask0_141_8597)">
<path d="M194.229 128.876L70.8442 -5.50128H212.374H487.503V253.86H307.515L194.229 128.876Z" fill="url(#paint0_linear_141_8597)" fill-opacity="0.15"/>
<path fill-rule="evenodd" clip-rule="evenodd" d="M196.052 55.9423L196.052 52.7114L192.828 52.7114L192.828 52.1284L196.052 52.1284L196.052 48.8975L196.634 48.8975L196.634 52.1284L199.858 52.1284L199.858 52.7114L196.634 52.7114L196.634 55.9423L196.052 55.9423Z" fill="#10458B"/>
<path fill-rule="evenodd" clip-rule="evenodd" d="M196.052 37.4915L196.052 34.2606L192.828 34.2606L192.828 33.6776L196.052 33.6776L196.052 30.4467L196.634 30.4467L196.634 33.6776L199.858 33.6776L199.858 34.2606L196.634 34.2606L196.634 37.4915L196.052 37.4915Z" fill="#10458B"/>
<path fill-rule="evenodd" clip-rule="evenodd" d="M214.623 37.4915L214.623 34.2606L211.398 34.2606L211.398 33.6776L214.623 33.6776L214.623 30.4467L215.205 30.4467L215.205 33.6776L218.429 33.6776L218.429 34.2606L215.205 34.2606L215.205 37.4915L214.623 37.4915Z" fill="#10458B"/>
<path fill-rule="evenodd" clip-rule="evenodd" d="M214.623 55.9423L214.623 52.7114L211.398 52.7114L211.398 52.1284L214.623 52.1284L214.623 48.8975L215.205 48.8975L215.205 52.1284L218.429 52.1284L218.429 52.7114L215.205 52.7114L215.205 55.9423L214.623 55.9423Z" fill="#10458B"/>
<path fill-rule="evenodd" clip-rule="evenodd" d="M232.442 77.0634L232.442 73.8325L229.218 73.8325L229.218 73.2495L232.442 73.2495L232.442 70.0186L233.024 70.0186L233.024 73.2495L236.248 73.2495L236.248 73.8325L233.024 73.8325L233.024 77.0634L232.442 77.0634Z" fill="#10458B"/>
<path fill-rule="evenodd" clip-rule="evenodd" d="M214.623 76.31L214.623 73.0791L211.398 73.0791L211.398 72.4961L214.623 72.4961L214.623 69.2652L215.205 69.2652L215.205 72.4961L218.429 72.4961L218.429 73.0791L215.205 73.0791L215.205 76.31L214.623 76.31Z" fill="#10458B"/>
<path fill-rule="evenodd" clip-rule="evenodd" d="M233.194 55.9423L233.194 52.7114L229.969 52.7114L229.969 52.1284L233.194 52.1284L233.194 48.8975L233.776 48.8975L233.776 52.1284L237 52.1284L237 52.7114L233.776 52.7114L233.776 55.9423L233.194 55.9423Z" fill="#10458B"/>
<path fill-rule="evenodd" clip-rule="evenodd" d="M177.639 37.4915L177.639 34.2606L174.414 34.2606L174.414 33.6776L177.639 33.6776L177.639 30.4467L178.22 30.4467L178.22 33.6776L181.445 33.6776L181.445 34.2606L178.22 34.2606L178.22 37.4915L177.639 37.4915Z" fill="#10458B"/>
<path fill-rule="evenodd" clip-rule="evenodd" d="M177.639 19.0412L177.639 15.8104L174.414 15.8104L174.414 15.2273L177.639 15.2273L177.639 11.9965L178.22 11.9965L178.22 15.2273L181.445 15.2273L181.445 15.8104L178.22 15.8104L178.22 19.0412L177.639 19.0412Z" fill="#10458B"/>
<path fill-rule="evenodd" clip-rule="evenodd" d="M159.224 19.0412L159.224 15.8104L156 15.8104L156 15.2273L159.224 15.2273L159.224 11.9965L159.806 11.9965L159.806 15.2273L163.031 15.2273L163.031 15.8104L159.806 15.8104L159.806 19.0412L159.224 19.0412Z" fill="#10458B"/>
<path fill-rule="evenodd" clip-rule="evenodd" d="M196.052 19.0412L196.052 15.8104L192.828 15.8104L192.828 15.2273L196.052 15.2273L196.052 11.9965L196.634 11.9965L196.634 15.2273L199.858 15.2273L199.858 15.8104L196.634 15.8104L196.634 19.0412L196.052 19.0412Z" fill="#10458B"/>
</g>
<defs>
<linearGradient id="paint0_linear_141_8597" x1="279.174" y1="-5.50128" x2="279.174" y2="253.86" gradientUnits="userSpaceOnUse">
<stop stop-color="#C4C4C4"/>
<stop offset="1" stop-color="#C4C4C4" stop-opacity="0"/>
</linearGradient>
</defs>
</svg>
