<svg width="142" height="248" viewBox="0 0 142 248" fill="none" xmlns="http://www.w3.org/2000/svg">
<mask id="mask0_217_40429" style="mask-type:alpha" maskUnits="userSpaceOnUse" x="0" y="0" width="142" height="248">
<rect width="141.688" height="247.354" fill="#E42352"/>
</mask>
<g mask="url(#mask0_217_40429)">
<path fill-rule="evenodd" clip-rule="evenodd" d="M23.1574 161.244L38.081 161.244L38.081 176.168L23.1574 176.168L23.1574 161.244ZM48.03 151.295L48.03 186.117L13.2084 186.117L13.2084 151.295L48.03 151.295Z" fill="url(#paint0_linear_217_40429)"/>
<path fill-rule="evenodd" clip-rule="evenodd" d="M76.8479 227.646C82.347 227.646 87.1851 222.975 87.1851 216.736C87.1851 210.497 82.347 205.826 76.8479 205.826C71.3487 205.826 66.5107 210.497 66.5107 216.736C66.5107 222.975 71.3487 227.646 76.8479 227.646ZM76.8479 235.347C86.7952 235.347 94.8591 227.015 94.8591 216.736C94.8591 206.457 86.7952 198.124 76.8479 198.124C66.9006 198.124 58.8367 206.457 58.8367 216.736C58.8367 227.015 66.9006 235.347 76.8479 235.347Z" fill="url(#paint1_linear_217_40429)"/>
<ellipse opacity="0.22" cx="174.709" cy="137.487" rx="87.0542" ry="87.0542" transform="rotate(-90 174.709 137.487)" fill="#082D5F"/>
<path opacity="0.05" d="M114.852 -98C152.637 -98 182.703 -68.1191 182.703 -31.9496C182.703 4.21995 152.637 34.1008 114.852 34.1008C77.0657 34.1008 47 4.21996 47 -31.9496C47 -68.1191 77.0657 -98 114.852 -98Z" stroke="#02142E" stroke-width="30"/>
</g>
<defs>
<linearGradient id="paint0_linear_217_40429" x1="23.5678" y1="184.62" x2="52.4994" y2="168.686" gradientUnits="userSpaceOnUse">
<stop stop-color="#E9366E"/>
<stop offset="1" stop-color="#F29A0B"/>
</linearGradient>
<linearGradient id="paint1_linear_217_40429" x1="84.1424" y1="233.748" x2="53.7644" y2="217.556" gradientUnits="userSpaceOnUse">
<stop stop-color="#E9366E"/>
<stop offset="1" stop-color="#F29A0B"/>
</linearGradient>
</defs>
</svg>
