<svg width="284" height="138" viewBox="0 0 284 138" fill="none" xmlns="http://www.w3.org/2000/svg">
<mask id="mask0_217_40446" style="mask-type:alpha" maskUnits="userSpaceOnUse" x="0" y="0" width="284" height="138">
<rect width="284" height="138" fill="#E42352"/>
</mask>
<g mask="url(#mask0_217_40446)">
<rect x="-5.81982" y="-18.8096" width="315.426" height="169.305" fill="url(#paint0_linear_217_40446)"/>
<g style="mix-blend-mode:overlay" opacity="0.33">
<rect width="290.978" height="290.978" rx="100" transform="matrix(0.696014 -0.718028 0.696015 0.718028 -188.557 22.0157)" fill="url(#paint1_linear_217_40446)"/>
</g>
<g style="mix-blend-mode:overlay" opacity="0.33">
<rect width="173.762" height="173.762" rx="40" transform="matrix(0.696014 -0.718028 0.696015 0.718028 -106.973 22.0157)" fill="url(#paint2_linear_217_40446)"/>
</g>
<path fill-rule="evenodd" clip-rule="evenodd" d="M234.147 67.0943L229.598 67.0943L229.598 71.7787L228.777 71.7787L228.777 67.0943L224.227 67.0943L224.227 66.249L228.777 66.249L228.777 61.5648L229.598 61.5648L229.598 66.249L234.147 66.249L234.147 67.0943Z" fill="#03235C"/>
<path fill-rule="evenodd" clip-rule="evenodd" d="M208.165 67.0943L203.615 67.0943L203.615 71.7787L202.794 71.7787L202.794 67.0943L198.244 67.0943L198.244 66.249L202.794 66.249L202.794 61.5648L203.615 61.5648L203.615 66.249L208.165 66.249L208.165 67.0943Z" fill="#03235C"/>
<path fill-rule="evenodd" clip-rule="evenodd" d="M208.165 40.1156L203.615 40.1156L203.615 44.7999L202.794 44.7999L202.794 40.1156L198.244 40.1156L198.244 39.2702L202.794 39.2702L202.794 34.586L203.615 34.586L203.615 39.2702L208.165 39.2702L208.165 40.1156Z" fill="#03235C"/>
<path fill-rule="evenodd" clip-rule="evenodd" d="M234.147 40.1158L229.598 40.1158L229.598 44.8002L228.777 44.8002L228.777 40.1158L224.227 40.1158L224.227 39.2705L228.777 39.2705L228.777 34.5863L229.598 34.5863L229.598 39.2705L234.147 39.2705L234.147 40.1158Z" fill="#03235C"/>
<path fill-rule="evenodd" clip-rule="evenodd" d="M263.891 14.2285L259.341 14.2285L259.341 18.9129L258.52 18.9129L258.52 14.2285L253.97 14.2285L253.97 13.3832L258.52 13.3832L258.52 8.69899L259.341 8.69899L259.341 13.3832L263.891 13.3832L263.891 14.2285Z" fill="#03235C"/>
<path fill-rule="evenodd" clip-rule="evenodd" d="M262.83 40.1156L258.28 40.1156L258.28 44.7999L257.459 44.7999L257.459 40.1156L252.909 40.1156L252.909 39.2702L257.459 39.2702L257.459 34.586L258.28 34.586L258.28 39.2702L262.83 39.2702L262.83 40.1156Z" fill="#03235C"/>
<path fill-rule="evenodd" clip-rule="evenodd" d="M234.147 13.1366L229.598 13.1366L229.598 17.821L228.777 17.821L228.777 13.1366L224.227 13.1366L224.227 12.2913L228.777 12.2913L228.777 7.60707L229.598 7.60707L229.598 12.2913L234.147 12.2913L234.147 13.1366Z" fill="#03235C"/>
<path fill-rule="evenodd" clip-rule="evenodd" d="M208.165 93.8446L203.615 93.8446L203.615 98.529L202.794 98.529L202.794 93.8446L198.244 93.8446L198.244 92.9993L202.794 92.9993L202.794 88.3151L203.615 88.3151L203.615 92.9993L208.165 92.9993L208.165 93.8446Z" fill="#03235C"/>
<path fill-rule="evenodd" clip-rule="evenodd" d="M182.183 93.8446L177.633 93.8446L177.633 98.529L176.812 98.529L176.812 93.8446L172.262 93.8446L172.262 92.9993L176.812 92.9993L176.812 88.3151L177.633 88.3151L177.633 92.9993L182.183 92.9993L182.183 93.8446Z" fill="#03235C"/>
<path fill-rule="evenodd" clip-rule="evenodd" d="M182.183 120.596L177.633 120.596L177.633 125.28L176.812 125.28L176.812 120.596L172.262 120.596L172.262 119.751L176.812 119.751L176.812 115.066L177.633 115.066L177.633 119.751L182.183 119.751L182.183 120.596Z" fill="#03235C"/>
<path fill-rule="evenodd" clip-rule="evenodd" d="M182.183 67.0943L177.633 67.0943L177.633 71.7787L176.812 71.7787L176.812 67.0943L172.262 67.0943L172.262 66.249L176.812 66.249L176.812 61.5648L177.633 61.5648L177.633 66.249L182.183 66.249L182.183 67.0943Z" fill="#03235C"/>
</g>
<defs>
<linearGradient id="paint0_linear_217_40446" x1="-5.8198" y1="-283.828" x2="9.50058" y2="170.457" gradientUnits="userSpaceOnUse">
<stop stop-color="#1319A5"/>
<stop offset="1" stop-color="#297EFA"/>
</linearGradient>
<linearGradient id="paint1_linear_217_40446" x1="145.489" y1="0" x2="145.489" y2="290.978" gradientUnits="userSpaceOnUse">
<stop stop-color="#959DAC"/>
<stop offset="1" stop-color="#4C4E70"/>
</linearGradient>
<linearGradient id="paint2_linear_217_40446" x1="86.8808" y1="0" x2="86.8808" y2="173.762" gradientUnits="userSpaceOnUse">
<stop stop-color="#7384A5"/>
<stop offset="1" stop-color="#1D3C65"/>
</linearGradient>
</defs>
</svg>
