<svg width="382" height="161" viewBox="0 0 382 161" fill="none" xmlns="http://www.w3.org/2000/svg">
<mask id="mask0_215_40031" style="mask-type:alpha" maskUnits="userSpaceOnUse" x="0" y="0" width="382" height="161">
<rect width="382" height="161" fill="#E42352"/>
</mask>
<g mask="url(#mask0_215_40031)">
<g opacity="0.33">
<circle r="3.46635" transform="matrix(4.37114e-08 -1 -1 -4.37114e-08 196.584 160.553)" fill="#012454"/>
<circle r="3.46635" transform="matrix(4.37114e-08 -1 -1 -4.37114e-08 196.584 148.421)" fill="#012454"/>
<circle r="3.46635" transform="matrix(4.37114e-08 -1 -1 -4.37114e-08 196.584 136.289)" fill="#012454"/>
<circle r="3.46635" transform="matrix(4.37114e-08 -1 -1 -4.37114e-08 196.584 124.157)" fill="#012454"/>
<circle r="3.46635" transform="matrix(4.37114e-08 -1 -1 -4.37114e-08 196.584 112.024)" fill="#012454"/>
<circle r="3.46635" transform="matrix(4.37114e-08 -1 -1 -4.37114e-08 196.583 99.8922)" fill="#012454"/>
<circle r="3.46635" transform="matrix(4.37114e-08 -1 -1 -4.37114e-08 196.584 87.7598)" fill="#012454"/>
<circle r="3.46635" transform="matrix(4.37114e-08 -1 -1 -4.37114e-08 172.32 160.553)" fill="#012454"/>
<circle r="3.46635" transform="matrix(4.37114e-08 -1 -1 -4.37114e-08 172.32 148.421)" fill="#012454"/>
<circle r="3.46635" transform="matrix(4.37114e-08 -1 -1 -4.37114e-08 172.32 136.289)" fill="#012454"/>
<circle r="3.46635" transform="matrix(4.37114e-08 -1 -1 -4.37114e-08 172.32 124.157)" fill="#012454"/>
<circle r="3.46635" transform="matrix(4.37114e-08 -1 -1 -4.37114e-08 172.32 112.024)" fill="#012454"/>
<circle r="3.46635" transform="matrix(4.37114e-08 -1 -1 -4.37114e-08 172.32 87.7598)" fill="#012454"/>
<circle r="3.46635" transform="matrix(4.37114e-08 -1 -1 -4.37114e-08 172.32 99.8922)" fill="#012454"/>
<circle r="3.46635" transform="matrix(4.37114e-08 -1 -1 -4.37114e-08 148.055 160.553)" fill="#012454"/>
<circle r="3.46635" transform="matrix(4.37114e-08 -1 -1 -4.37114e-08 148.055 148.421)" fill="#012454"/>
<circle r="3.46635" transform="matrix(4.37114e-08 -1 -1 -4.37114e-08 148.055 136.289)" fill="#012454"/>
<circle r="3.46635" transform="matrix(4.37114e-08 -1 -1 -4.37114e-08 148.055 124.157)" fill="#012454"/>
<circle r="3.46635" transform="matrix(4.37114e-08 -1 -1 -4.37114e-08 148.055 87.7598)" fill="#012454"/>
<circle r="3.46635" transform="matrix(4.37114e-08 -1 -1 -4.37114e-08 148.055 112.024)" fill="#012454"/>
<circle r="3.46635" transform="matrix(4.37114e-08 -1 -1 -4.37114e-08 148.055 99.8922)" fill="#012454"/>
<circle r="3.46635" transform="matrix(4.37114e-08 -1 -1 -4.37114e-08 123.791 160.553)" fill="#012454"/>
<circle r="3.46635" transform="matrix(4.37114e-08 -1 -1 -4.37114e-08 123.791 148.421)" fill="#012454"/>
<circle r="3.46635" transform="matrix(4.37114e-08 -1 -1 -4.37114e-08 123.791 136.289)" fill="#012454"/>
<circle r="3.46635" transform="matrix(4.37114e-08 -1 -1 -4.37114e-08 123.791 87.7598)" fill="#012454"/>
<circle r="3.46635" transform="matrix(4.37114e-08 -1 -1 -4.37114e-08 123.791 124.157)" fill="#012454"/>
<circle r="3.46635" transform="matrix(4.37114e-08 -1 -1 -4.37114e-08 123.791 112.024)" fill="#012454"/>
<circle r="3.46635" transform="matrix(4.37114e-08 -1 -1 -4.37114e-08 123.791 99.8922)" fill="#012454"/>
<circle r="3.46635" transform="matrix(4.37114e-08 -1 -1 -4.37114e-08 99.5261 160.553)" fill="#012454"/>
<circle r="3.46635" transform="matrix(4.37114e-08 -1 -1 -4.37114e-08 99.5261 148.421)" fill="#012454"/>
<circle r="3.46635" transform="matrix(4.37114e-08 -1 -1 -4.37114e-08 99.5261 87.7598)" fill="#012454"/>
<circle r="3.46635" transform="matrix(4.37114e-08 -1 -1 -4.37114e-08 99.5261 136.289)" fill="#012454"/>
<circle r="3.46635" transform="matrix(4.37114e-08 -1 -1 -4.37114e-08 99.5261 124.157)" fill="#012454"/>
<circle r="3.46635" transform="matrix(4.37114e-08 -1 -1 -4.37114e-08 99.5261 112.024)" fill="#012454"/>
<circle r="3.46635" transform="matrix(4.37114e-08 -1 -1 -4.37114e-08 99.5261 99.8922)" fill="#012454"/>
<circle r="3.46635" transform="matrix(4.37114e-08 -1 -1 -4.37114e-08 160.188 93.826)" fill="#012454"/>
<circle r="3.46635" transform="matrix(4.37114e-08 -1 -1 -4.37114e-08 160.188 154.487)" fill="#012454"/>
<circle r="3.46635" transform="matrix(4.37114e-08 -1 -1 -4.37114e-08 160.188 142.355)" fill="#012454"/>
<circle r="3.46635" transform="matrix(4.37114e-08 -1 -1 -4.37114e-08 160.188 130.223)" fill="#012454"/>
<circle r="3.46635" transform="matrix(4.37114e-08 -1 -1 -4.37114e-08 160.188 118.091)" fill="#012454"/>
<circle r="3.46635" transform="matrix(4.37114e-08 -1 -1 -4.37114e-08 160.188 105.958)" fill="#012454"/>
<circle r="3.46635" transform="matrix(4.37114e-08 -1 -1 -4.37114e-08 184.452 93.826)" fill="#012454"/>
<circle r="3.46635" transform="matrix(4.37114e-08 -1 -1 -4.37114e-08 184.452 154.487)" fill="#012454"/>
<circle r="3.46635" transform="matrix(4.37114e-08 -1 -1 -4.37114e-08 184.452 142.355)" fill="#012454"/>
<circle r="3.46635" transform="matrix(4.37114e-08 -1 -1 -4.37114e-08 184.452 130.223)" fill="#012454"/>
<circle r="3.46635" transform="matrix(4.37114e-08 -1 -1 -4.37114e-08 184.452 118.091)" fill="#012454"/>
<circle r="3.46635" transform="matrix(4.37114e-08 -1 -1 -4.37114e-08 184.452 105.958)" fill="#012454"/>
<circle r="3.46635" transform="matrix(4.37114e-08 -1 -1 -4.37114e-08 135.923 93.826)" fill="#012454"/>
<circle r="3.46635" transform="matrix(4.37114e-08 -1 -1 -4.37114e-08 135.923 154.487)" fill="#012454"/>
<circle r="3.46635" transform="matrix(4.37114e-08 -1 -1 -4.37114e-08 135.923 142.355)" fill="#012454"/>
<circle r="3.46635" transform="matrix(4.37114e-08 -1 -1 -4.37114e-08 135.923 130.223)" fill="#012454"/>
<circle r="3.46635" transform="matrix(4.37114e-08 -1 -1 -4.37114e-08 135.923 118.091)" fill="#012454"/>
<circle r="3.46635" transform="matrix(4.37114e-08 -1 -1 -4.37114e-08 135.923 105.958)" fill="#012454"/>
<circle r="3.46635" transform="matrix(4.37114e-08 -1 -1 -4.37114e-08 111.659 93.826)" fill="#012454"/>
<circle r="3.46635" transform="matrix(4.37114e-08 -1 -1 -4.37114e-08 111.659 154.487)" fill="#012454"/>
<circle r="3.46635" transform="matrix(4.37114e-08 -1 -1 -4.37114e-08 111.659 142.355)" fill="#012454"/>
<circle r="3.46635" transform="matrix(4.37114e-08 -1 -1 -4.37114e-08 111.659 130.223)" fill="#012454"/>
<circle r="3.46635" transform="matrix(4.37114e-08 -1 -1 -4.37114e-08 111.659 118.091)" fill="#012454"/>
<circle r="3.46635" transform="matrix(4.37114e-08 -1 -1 -4.37114e-08 111.659 105.958)" fill="#012454"/>
<circle r="3.46635" transform="matrix(4.37114e-08 -1 -1 -4.37114e-08 317.907 87.7598)" fill="#012454"/>
<circle r="3.46635" transform="matrix(4.37114e-08 -1 -1 -4.37114e-08 317.907 160.553)" fill="#012454"/>
<circle r="3.46635" transform="matrix(4.37114e-08 -1 -1 -4.37114e-08 317.907 148.421)" fill="#012454"/>
<circle r="3.46635" transform="matrix(4.37114e-08 -1 -1 -4.37114e-08 317.907 136.289)" fill="#012454"/>
<circle r="3.46635" transform="matrix(4.37114e-08 -1 -1 -4.37114e-08 317.907 124.157)" fill="#012454"/>
<circle r="3.46635" transform="matrix(4.37114e-08 -1 -1 -4.37114e-08 317.907 112.024)" fill="#012454"/>
<circle r="3.46635" transform="matrix(4.37114e-08 -1 -1 -4.37114e-08 293.641 87.7598)" fill="#012454"/>
<circle r="3.46635" transform="matrix(4.37114e-08 -1 -1 -4.37114e-08 317.907 99.8919)" fill="#012454"/>
<circle r="3.46635" transform="matrix(4.37114e-08 -1 -1 -4.37114e-08 293.641 160.553)" fill="#012454"/>
<circle r="3.46635" transform="matrix(4.37114e-08 -1 -1 -4.37114e-08 293.641 148.421)" fill="#012454"/>
<circle r="3.46635" transform="matrix(4.37114e-08 -1 -1 -4.37114e-08 293.641 136.289)" fill="#012454"/>
<circle r="3.46635" transform="matrix(4.37114e-08 -1 -1 -4.37114e-08 293.641 124.157)" fill="#012454"/>
<circle r="3.46635" transform="matrix(4.37114e-08 -1 -1 -4.37114e-08 269.378 87.7598)" fill="#012454"/>
<circle r="3.46635" transform="matrix(4.37114e-08 -1 -1 -4.37114e-08 293.641 112.024)" fill="#012454"/>
<circle r="3.46635" transform="matrix(4.37114e-08 -1 -1 -4.37114e-08 293.641 99.8919)" fill="#012454"/>
<circle r="3.46635" transform="matrix(4.37114e-08 -1 -1 -4.37114e-08 269.378 160.553)" fill="#012454"/>
<circle r="3.46635" transform="matrix(4.37114e-08 -1 -1 -4.37114e-08 269.378 148.421)" fill="#012454"/>
<circle r="3.46635" transform="matrix(4.37114e-08 -1 -1 -4.37114e-08 269.378 136.289)" fill="#012454"/>
<circle r="3.46635" transform="matrix(4.37114e-08 -1 -1 -4.37114e-08 269.378 124.157)" fill="#012454"/>
<circle r="3.46635" transform="matrix(4.37114e-08 -1 -1 -4.37114e-08 269.378 112.024)" fill="#012454"/>
<circle r="3.46635" transform="matrix(4.37114e-08 -1 -1 -4.37114e-08 269.378 99.8922)" fill="#012454"/>
<circle r="3.46635" transform="matrix(4.37114e-08 -1 -1 -4.37114e-08 245.112 87.7598)" fill="#012454"/>
<circle r="3.46635" transform="matrix(4.37114e-08 -1 -1 -4.37114e-08 366.436 87.7598)" fill="#012454"/>
<circle r="3.46635" transform="matrix(4.37114e-08 -1 -1 -4.37114e-08 245.112 160.553)" fill="#012454"/>
<circle r="3.46635" transform="matrix(4.37114e-08 -1 -1 -4.37114e-08 366.436 160.553)" fill="#012454"/>
<circle r="3.46635" transform="matrix(4.37114e-08 -1 -1 -4.37114e-08 245.112 148.421)" fill="#012454"/>
<circle r="3.46635" transform="matrix(4.37114e-08 -1 -1 -4.37114e-08 366.436 148.421)" fill="#012454"/>
<circle r="3.46635" transform="matrix(4.37114e-08 -1 -1 -4.37114e-08 245.112 136.289)" fill="#012454"/>
<circle r="3.46635" transform="matrix(4.37114e-08 -1 -1 -4.37114e-08 366.436 136.289)" fill="#012454"/>
<circle r="3.46635" transform="matrix(4.37114e-08 -1 -1 -4.37114e-08 245.112 124.157)" fill="#012454"/>
<circle r="3.46635" transform="matrix(4.37114e-08 -1 -1 -4.37114e-08 366.436 124.157)" fill="#012454"/>
<circle r="3.46635" transform="matrix(4.37114e-08 -1 -1 -4.37114e-08 245.112 112.024)" fill="#012454"/>
<circle r="3.46635" transform="matrix(4.37114e-08 -1 -1 -4.37114e-08 366.436 112.024)" fill="#012454"/>
<circle r="3.46635" transform="matrix(4.37114e-08 -1 -1 -4.37114e-08 245.112 99.8922)" fill="#012454"/>
<circle r="3.46635" transform="matrix(4.37114e-08 -1 -1 -4.37114e-08 366.436 99.8922)" fill="#012454"/>
<circle r="3.46635" transform="matrix(4.37114e-08 -1 -1 -4.37114e-08 220.849 87.7598)" fill="#012454"/>
<circle r="3.46635" transform="matrix(4.37114e-08 -1 -1 -4.37114e-08 342.17 87.7598)" fill="#012454"/>
<circle r="3.46635" transform="matrix(4.37114e-08 -1 -1 -4.37114e-08 220.849 160.553)" fill="#012454"/>
<circle r="3.46635" transform="matrix(4.37114e-08 -1 -1 -4.37114e-08 342.17 160.553)" fill="#012454"/>
<circle r="3.46635" transform="matrix(4.37114e-08 -1 -1 -4.37114e-08 220.849 148.421)" fill="#012454"/>
<circle r="3.46635" transform="matrix(4.37114e-08 -1 -1 -4.37114e-08 342.17 148.421)" fill="#012454"/>
<circle r="3.46635" transform="matrix(4.37114e-08 -1 -1 -4.37114e-08 220.849 136.289)" fill="#012454"/>
<circle r="3.46635" transform="matrix(4.37114e-08 -1 -1 -4.37114e-08 342.17 136.289)" fill="#012454"/>
<circle r="3.46635" transform="matrix(4.37114e-08 -1 -1 -4.37114e-08 281.51 93.826)" fill="#012454"/>
<circle r="3.46635" transform="matrix(4.37114e-08 -1 -1 -4.37114e-08 220.849 124.157)" fill="#012454"/>
<circle r="3.46635" transform="matrix(4.37114e-08 -1 -1 -4.37114e-08 342.17 124.157)" fill="#012454"/>
<circle r="3.46635" transform="matrix(4.37114e-08 -1 -1 -4.37114e-08 220.849 112.024)" fill="#012454"/>
<circle r="3.46635" transform="matrix(4.37114e-08 -1 -1 -4.37114e-08 342.17 112.024)" fill="#012454"/>
<circle r="3.46635" transform="matrix(4.37114e-08 -1 -1 -4.37114e-08 220.849 99.8922)" fill="#012454"/>
<circle r="3.46635" transform="matrix(4.37114e-08 -1 -1 -4.37114e-08 342.17 99.8922)" fill="#012454"/>
<circle r="3.46635" transform="matrix(4.37114e-08 -1 -1 -4.37114e-08 196.584 75.6273)" fill="#012454"/>
<circle r="3.46635" transform="matrix(4.37114e-08 -1 -1 -4.37114e-08 172.32 75.6273)" fill="#012454"/>
<circle r="3.46635" transform="matrix(4.37114e-08 -1 -1 -4.37114e-08 148.055 75.6273)" fill="#012454"/>
<circle r="3.46635" transform="matrix(4.37114e-08 -1 -1 -4.37114e-08 123.791 75.6273)" fill="#012454"/>
<circle r="3.46635" transform="matrix(4.37114e-08 -1 -1 -4.37114e-08 99.5263 75.6273)" fill="#012454"/>
<circle r="3.46635" transform="matrix(4.37114e-08 -1 -1 -4.37114e-08 317.907 75.6273)" fill="#012454"/>
<circle r="3.46635" transform="matrix(4.37114e-08 -1 -1 -4.37114e-08 293.641 75.6273)" fill="#012454"/>
<circle r="3.46635" transform="matrix(4.37114e-08 -1 -1 -4.37114e-08 269.378 75.6273)" fill="#012454"/>
<circle r="3.46635" transform="matrix(4.37114e-08 -1 -1 -4.37114e-08 245.113 75.6273)" fill="#012454"/>
<circle r="3.46635" transform="matrix(4.37114e-08 -1 -1 -4.37114e-08 366.436 75.6273)" fill="#012454"/>
<circle r="3.46635" transform="matrix(4.37114e-08 -1 -1 -4.37114e-08 220.849 75.6273)" fill="#012454"/>
<circle r="3.46635" transform="matrix(4.37114e-08 -1 -1 -4.37114e-08 342.17 75.6273)" fill="#012454"/>
<circle r="3.46635" transform="matrix(4.37114e-08 -1 -1 -4.37114e-08 196.584 63.6554)" fill="#012454"/>
<circle r="3.46635" transform="matrix(4.37114e-08 -1 -1 -4.37114e-08 172.32 63.6554)" fill="#012454"/>
<circle r="3.46635" transform="matrix(4.37114e-08 -1 -1 -4.37114e-08 148.055 63.6554)" fill="#012454"/>
<circle r="3.46635" transform="matrix(4.37114e-08 -1 -1 -4.37114e-08 123.791 63.6554)" fill="#012454"/>
<circle r="3.46635" transform="matrix(4.37114e-08 -1 -1 -4.37114e-08 99.5263 63.6554)" fill="#012454"/>
<circle r="3.46635" transform="matrix(4.37114e-08 -1 -1 -4.37114e-08 317.907 63.6554)" fill="#012454"/>
<circle r="3.46635" transform="matrix(4.37114e-08 -1 -1 -4.37114e-08 293.641 63.6554)" fill="#012454"/>
<circle r="3.46635" transform="matrix(4.37114e-08 -1 -1 -4.37114e-08 269.378 63.6554)" fill="#012454"/>
<circle r="3.46635" transform="matrix(4.37114e-08 -1 -1 -4.37114e-08 245.113 63.6554)" fill="#012454"/>
<circle r="3.46635" transform="matrix(4.37114e-08 -1 -1 -4.37114e-08 366.436 63.6554)" fill="#012454"/>
<circle r="3.46635" transform="matrix(4.37114e-08 -1 -1 -4.37114e-08 220.849 63.6554)" fill="#012454"/>
<circle r="3.46635" transform="matrix(4.37114e-08 -1 -1 -4.37114e-08 342.17 63.6554)" fill="#012454"/>
<circle r="3.46635" transform="matrix(4.37114e-08 -1 -1 -4.37114e-08 196.584 51.9115)" fill="#012454"/>
<circle r="3.46635" transform="matrix(4.37114e-08 -1 -1 -4.37114e-08 172.32 51.9115)" fill="#012454"/>
<circle r="3.46635" transform="matrix(4.37114e-08 -1 -1 -4.37114e-08 148.055 51.9115)" fill="#012454"/>
<circle r="3.46635" transform="matrix(4.37114e-08 -1 -1 -4.37114e-08 123.791 51.9115)" fill="#012454"/>
<circle r="3.46635" transform="matrix(4.37114e-08 -1 -1 -4.37114e-08 99.5263 51.9115)" fill="#012454"/>
<circle r="3.46635" transform="matrix(4.37114e-08 -1 -1 -4.37114e-08 317.907 51.9115)" fill="#012454"/>
<circle r="3.46635" transform="matrix(4.37114e-08 -1 -1 -4.37114e-08 293.641 51.9115)" fill="#012454"/>
<circle r="3.46635" transform="matrix(4.37114e-08 -1 -1 -4.37114e-08 269.378 51.9115)" fill="#012454"/>
<circle r="3.46635" transform="matrix(4.37114e-08 -1 -1 -4.37114e-08 245.113 51.9115)" fill="#012454"/>
<circle r="3.46635" transform="matrix(4.37114e-08 -1 -1 -4.37114e-08 366.436 51.9115)" fill="#012454"/>
<circle r="3.46635" transform="matrix(4.37114e-08 -1 -1 -4.37114e-08 220.849 51.9115)" fill="#012454"/>
<circle r="3.46635" transform="matrix(4.37114e-08 -1 -1 -4.37114e-08 342.17 51.9115)" fill="#012454"/>
<circle r="3.46635" transform="matrix(4.37114e-08 -1 -1 -4.37114e-08 196.584 40.1671)" fill="#012454"/>
<circle r="3.46635" transform="matrix(4.37114e-08 -1 -1 -4.37114e-08 172.32 40.1671)" fill="#012454"/>
<circle r="3.46635" transform="matrix(4.37114e-08 -1 -1 -4.37114e-08 148.055 40.1671)" fill="#012454"/>
<circle r="3.46635" transform="matrix(4.37114e-08 -1 -1 -4.37114e-08 123.791 40.1671)" fill="#012454"/>
<circle r="3.46635" transform="matrix(4.37114e-08 -1 -1 -4.37114e-08 99.5261 40.1671)" fill="#012454"/>
<circle r="3.46635" transform="matrix(4.37114e-08 -1 -1 -4.37114e-08 317.907 40.1671)" fill="#012454"/>
<circle r="3.46635" transform="matrix(4.37114e-08 -1 -1 -4.37114e-08 293.641 40.1671)" fill="#012454"/>
<circle r="3.46635" transform="matrix(4.37114e-08 -1 -1 -4.37114e-08 269.378 40.1671)" fill="#012454"/>
<circle r="3.46635" transform="matrix(4.37114e-08 -1 -1 -4.37114e-08 245.112 40.1671)" fill="#012454"/>
<circle r="3.46635" transform="matrix(4.37114e-08 -1 -1 -4.37114e-08 366.436 40.1671)" fill="#012454"/>
<circle r="3.46635" transform="matrix(4.37114e-08 -1 -1 -4.37114e-08 220.849 40.1671)" fill="#012454"/>
<circle r="3.46635" transform="matrix(4.37114e-08 -1 -1 -4.37114e-08 342.17 40.1671)" fill="#012454"/>
<circle r="3.46635" transform="matrix(4.37114e-08 -1 -1 -4.37114e-08 305.775 93.826)" fill="#012454"/>
<circle r="3.46635" transform="matrix(4.37114e-08 -1 -1 -4.37114e-08 281.51 154.487)" fill="#012454"/>
<circle r="3.46635" transform="matrix(4.37114e-08 -1 -1 -4.37114e-08 281.51 142.355)" fill="#012454"/>
<circle r="3.46635" transform="matrix(4.37114e-08 -1 -1 -4.37114e-08 281.51 130.223)" fill="#012454"/>
<circle r="3.46635" transform="matrix(4.37114e-08 -1 -1 -4.37114e-08 281.51 118.091)" fill="#012454"/>
<circle r="3.46635" transform="matrix(4.37114e-08 -1 -1 -4.37114e-08 281.51 105.958)" fill="#012454"/>
<circle r="3.46635" transform="matrix(4.37114e-08 -1 -1 -4.37114e-08 257.246 93.826)" fill="#012454"/>
<circle r="3.46635" transform="matrix(4.37114e-08 -1 -1 -4.37114e-08 305.775 154.487)" fill="#012454"/>
<circle r="3.46635" transform="matrix(4.37114e-08 -1 -1 -4.37114e-08 305.775 142.355)" fill="#012454"/>
<circle r="3.46635" transform="matrix(4.37114e-08 -1 -1 -4.37114e-08 305.775 130.223)" fill="#012454"/>
<circle r="3.46635" transform="matrix(4.37114e-08 -1 -1 -4.37114e-08 305.775 118.091)" fill="#012454"/>
<circle r="3.46635" transform="matrix(4.37114e-08 -1 -1 -4.37114e-08 305.775 105.958)" fill="#012454"/>
<circle r="3.46635" transform="matrix(4.37114e-08 -1 -1 -4.37114e-08 257.246 154.487)" fill="#012454"/>
<circle r="3.46635" transform="matrix(4.37114e-08 -1 -1 -4.37114e-08 257.246 142.355)" fill="#012454"/>
<circle r="3.46635" transform="matrix(4.37114e-08 -1 -1 -4.37114e-08 257.246 130.223)" fill="#012454"/>
<circle r="3.46635" transform="matrix(4.37114e-08 -1 -1 -4.37114e-08 257.246 118.091)" fill="#012454"/>
<circle r="3.46635" transform="matrix(4.37114e-08 -1 -1 -4.37114e-08 232.981 93.826)" fill="#012454"/>
<circle r="3.46635" transform="matrix(4.37114e-08 -1 -1 -4.37114e-08 354.304 93.826)" fill="#012454"/>
<circle r="3.46635" transform="matrix(4.37114e-08 -1 -1 -4.37114e-08 257.246 105.958)" fill="#012454"/>
<circle r="3.46635" transform="matrix(4.37114e-08 -1 -1 -4.37114e-08 232.981 154.487)" fill="#012454"/>
<circle r="3.46635" transform="matrix(4.37114e-08 -1 -1 -4.37114e-08 354.304 154.487)" fill="#012454"/>
<circle r="3.46635" transform="matrix(4.37114e-08 -1 -1 -4.37114e-08 232.981 142.355)" fill="#012454"/>
<circle r="3.46635" transform="matrix(4.37114e-08 -1 -1 -4.37114e-08 354.304 142.355)" fill="#012454"/>
<circle r="3.46635" transform="matrix(4.37114e-08 -1 -1 -4.37114e-08 232.981 130.223)" fill="#012454"/>
<circle r="3.46635" transform="matrix(4.37114e-08 -1 -1 -4.37114e-08 354.304 130.223)" fill="#012454"/>
<circle r="3.46635" transform="matrix(4.37114e-08 -1 -1 -4.37114e-08 232.981 118.091)" fill="#012454"/>
<circle r="3.46635" transform="matrix(4.37114e-08 -1 -1 -4.37114e-08 354.304 118.091)" fill="#012454"/>
<circle r="3.46635" transform="matrix(4.37114e-08 -1 -1 -4.37114e-08 208.717 93.826)" fill="#012454"/>
<circle r="3.46635" transform="matrix(4.37114e-08 -1 -1 -4.37114e-08 330.039 93.826)" fill="#012454"/>
<circle r="3.46635" transform="matrix(4.37114e-08 -1 -1 -4.37114e-08 232.981 105.958)" fill="#012454"/>
<circle r="3.46635" transform="matrix(4.37114e-08 -1 -1 -4.37114e-08 354.304 105.958)" fill="#012454"/>
<circle r="3.46635" transform="matrix(4.37114e-08 -1 -1 -4.37114e-08 208.717 154.487)" fill="#012454"/>
<circle r="3.46635" transform="matrix(4.37114e-08 -1 -1 -4.37114e-08 330.039 154.487)" fill="#012454"/>
<circle r="3.46635" transform="matrix(4.37114e-08 -1 -1 -4.37114e-08 208.717 142.355)" fill="#012454"/>
<circle r="3.46635" transform="matrix(4.37114e-08 -1 -1 -4.37114e-08 330.039 142.355)" fill="#012454"/>
<circle r="3.46635" transform="matrix(4.37114e-08 -1 -1 -4.37114e-08 208.717 130.223)" fill="#012454"/>
<circle r="3.46635" transform="matrix(4.37114e-08 -1 -1 -4.37114e-08 330.039 130.223)" fill="#012454"/>
<circle r="3.46635" transform="matrix(4.37114e-08 -1 -1 -4.37114e-08 208.717 118.091)" fill="#012454"/>
<circle r="3.46635" transform="matrix(4.37114e-08 -1 -1 -4.37114e-08 330.039 118.091)" fill="#012454"/>
<circle r="3.46635" transform="matrix(4.37114e-08 -1 -1 -4.37114e-08 208.717 105.958)" fill="#012454"/>
<circle r="3.46635" transform="matrix(4.37114e-08 -1 -1 -4.37114e-08 330.039 105.958)" fill="#012454"/>
<circle r="3.46635" transform="matrix(4.37114e-08 -1 -1 -4.37114e-08 160.188 81.6943)" fill="#012454"/>
<circle r="3.46635" transform="matrix(4.37114e-08 -1 -1 -4.37114e-08 184.452 81.6943)" fill="#012454"/>
<circle r="3.46635" transform="matrix(4.37114e-08 -1 -1 -4.37114e-08 135.923 81.6943)" fill="#012454"/>
<circle r="3.46635" transform="matrix(4.37114e-08 -1 -1 -4.37114e-08 111.66 81.6943)" fill="#012454"/>
<circle r="3.46635" transform="matrix(4.37114e-08 -1 -1 -4.37114e-08 281.51 81.6943)" fill="#012454"/>
<circle r="3.46635" transform="matrix(4.37114e-08 -1 -1 -4.37114e-08 305.775 81.6943)" fill="#012454"/>
<circle r="3.46635" transform="matrix(4.37114e-08 -1 -1 -4.37114e-08 257.246 81.6943)" fill="#012454"/>
<circle r="3.46635" transform="matrix(4.37114e-08 -1 -1 -4.37114e-08 232.981 81.6943)" fill="#012454"/>
<circle r="3.46635" transform="matrix(4.37114e-08 -1 -1 -4.37114e-08 354.304 81.6943)" fill="#012454"/>
<circle r="3.46635" transform="matrix(4.37114e-08 -1 -1 -4.37114e-08 208.717 81.6943)" fill="#012454"/>
<circle r="3.46635" transform="matrix(4.37114e-08 -1 -1 -4.37114e-08 330.039 81.6943)" fill="#012454"/>
<circle r="3.46635" transform="matrix(4.37114e-08 -1 -1 -4.37114e-08 160.188 69.9184)" fill="#012454"/>
<circle r="3.46635" transform="matrix(4.37114e-08 -1 -1 -4.37114e-08 184.452 69.9184)" fill="#012454"/>
<circle r="3.46635" transform="matrix(4.37114e-08 -1 -1 -4.37114e-08 135.923 69.9184)" fill="#012454"/>
<circle r="3.46635" transform="matrix(4.37114e-08 -1 -1 -4.37114e-08 111.66 69.9184)" fill="#012454"/>
<circle r="3.46635" transform="matrix(4.37114e-08 -1 -1 -4.37114e-08 281.51 69.9184)" fill="#012454"/>
<circle r="3.46635" transform="matrix(4.37114e-08 -1 -1 -4.37114e-08 305.775 69.9184)" fill="#012454"/>
<circle r="3.46635" transform="matrix(4.37114e-08 -1 -1 -4.37114e-08 257.246 69.9184)" fill="#012454"/>
<circle r="3.46635" transform="matrix(4.37114e-08 -1 -1 -4.37114e-08 232.981 69.9184)" fill="#012454"/>
<circle r="3.46635" transform="matrix(4.37114e-08 -1 -1 -4.37114e-08 354.304 69.9184)" fill="#012454"/>
<circle r="3.46635" transform="matrix(4.37114e-08 -1 -1 -4.37114e-08 208.717 69.9184)" fill="#012454"/>
<circle r="3.46635" transform="matrix(4.37114e-08 -1 -1 -4.37114e-08 330.039 69.9184)" fill="#012454"/>
<circle r="3.46635" transform="matrix(4.37114e-08 -1 -1 -4.37114e-08 160.188 58.1748)" fill="#012454"/>
<circle r="3.46635" transform="matrix(4.37114e-08 -1 -1 -4.37114e-08 184.452 58.1748)" fill="#012454"/>
<circle r="3.46635" transform="matrix(4.37114e-08 -1 -1 -4.37114e-08 135.923 58.1748)" fill="#012454"/>
<circle r="3.46635" transform="matrix(4.37114e-08 -1 -1 -4.37114e-08 111.66 58.1748)" fill="#012454"/>
<circle r="3.46635" transform="matrix(4.37114e-08 -1 -1 -4.37114e-08 281.51 58.1748)" fill="#012454"/>
<circle r="3.46635" transform="matrix(4.37114e-08 -1 -1 -4.37114e-08 305.775 58.1748)" fill="#012454"/>
<circle r="3.46635" transform="matrix(4.37114e-08 -1 -1 -4.37114e-08 257.246 58.1748)" fill="#012454"/>
<circle r="3.46635" transform="matrix(4.37114e-08 -1 -1 -4.37114e-08 232.981 58.1748)" fill="#012454"/>
<circle r="3.46635" transform="matrix(4.37114e-08 -1 -1 -4.37114e-08 354.304 58.1748)" fill="#012454"/>
<circle r="3.46635" transform="matrix(4.37114e-08 -1 -1 -4.37114e-08 208.717 58.1748)" fill="#012454"/>
<circle r="3.46635" transform="matrix(4.37114e-08 -1 -1 -4.37114e-08 330.039 58.1748)" fill="#012454"/>
<circle r="3.46635" transform="matrix(4.37114e-08 -1 -1 -4.37114e-08 160.188 46.4301)" fill="#012454"/>
<circle r="3.46635" transform="matrix(4.37114e-08 -1 -1 -4.37114e-08 184.452 46.4301)" fill="#012454"/>
<circle r="3.46635" transform="matrix(4.37114e-08 -1 -1 -4.37114e-08 135.923 46.4301)" fill="#012454"/>
<circle r="3.46635" transform="matrix(4.37114e-08 -1 -1 -4.37114e-08 111.66 46.4301)" fill="#012454"/>
<circle r="3.46635" transform="matrix(4.37114e-08 -1 -1 -4.37114e-08 281.51 46.4301)" fill="#012454"/>
<circle r="3.46635" transform="matrix(4.37114e-08 -1 -1 -4.37114e-08 305.775 46.4301)" fill="#012454"/>
<circle r="3.46635" transform="matrix(4.37114e-08 -1 -1 -4.37114e-08 257.246 46.4301)" fill="#012454"/>
<circle r="3.46635" transform="matrix(4.37114e-08 -1 -1 -4.37114e-08 232.981 46.4301)" fill="#012454"/>
<circle r="3.46635" transform="matrix(4.37114e-08 -1 -1 -4.37114e-08 354.304 46.4301)" fill="#012454"/>
<circle r="3.46635" transform="matrix(4.37114e-08 -1 -1 -4.37114e-08 208.717 46.4301)" fill="#012454"/>
<circle r="3.46635" transform="matrix(4.37114e-08 -1 -1 -4.37114e-08 330.039 46.4301)" fill="#012454"/>
<circle r="3.46635" transform="matrix(4.37114e-08 -1 -1 -4.37114e-08 160.188 34.6867)" fill="#012454"/>
<circle r="3.46635" transform="matrix(4.37114e-08 -1 -1 -4.37114e-08 184.452 34.6867)" fill="#012454"/>
<circle r="3.46635" transform="matrix(4.37114e-08 -1 -1 -4.37114e-08 135.923 34.6867)" fill="#012454"/>
<circle r="3.46635" transform="matrix(4.37114e-08 -1 -1 -4.37114e-08 111.66 34.6867)" fill="#012454"/>
<circle r="3.46635" transform="matrix(4.37114e-08 -1 -1 -4.37114e-08 281.51 34.6867)" fill="#012454"/>
<circle r="3.46635" transform="matrix(4.37114e-08 -1 -1 -4.37114e-08 305.775 34.6867)" fill="#012454"/>
<circle r="3.46635" transform="matrix(4.37114e-08 -1 -1 -4.37114e-08 257.246 34.6867)" fill="#012454"/>
<circle r="3.46635" transform="matrix(4.37114e-08 -1 -1 -4.37114e-08 232.981 34.6867)" fill="#012454"/>
<circle r="3.46635" transform="matrix(4.37114e-08 -1 -1 -4.37114e-08 354.304 34.6867)" fill="#012454"/>
<circle r="3.46635" transform="matrix(4.37114e-08 -1 -1 -4.37114e-08 208.717 34.6867)" fill="#012454"/>
<circle r="3.46635" transform="matrix(4.37114e-08 -1 -1 -4.37114e-08 330.039 34.6867)" fill="#012454"/>
</g>
</g>
</svg>
