<svg width="158" height="154" viewBox="0 0 158 154" fill="none" xmlns="http://www.w3.org/2000/svg">
<mask id="mask0_215_39946" style="mask-type:alpha" maskUnits="userSpaceOnUse" x="0" y="0" width="158" height="154">
<rect width="157.298" height="153.696" fill="#E42352"/>
</mask>
<g mask="url(#mask0_215_39946)">
<path d="M197.89 245.095C206.253 236.733 212.875 226.794 217.38 215.847C221.884 204.899 224.182 193.157 224.143 181.292C224.103 169.426 221.727 157.669 217.15 146.691C212.573 135.713 205.884 125.73 197.466 117.312C189.048 108.894 179.065 102.205 168.087 97.628C157.109 93.0508 145.352 90.6746 133.486 90.6352C121.621 90.5958 109.879 92.8939 98.9314 97.3983C87.984 101.903 78.0453 108.525 69.6829 116.888L87.7472 134.952C93.7531 128.946 100.891 124.19 108.754 120.955C116.616 117.72 125.049 116.069 133.571 116.097C142.093 116.126 150.537 117.832 158.421 121.12C166.305 124.407 173.475 129.211 179.521 135.257C185.567 141.303 190.371 148.473 193.658 156.357C196.946 164.241 198.652 172.685 198.681 181.207C198.709 189.729 197.058 198.162 193.823 206.024C190.588 213.887 185.832 221.025 179.826 227.031L197.89 245.095Z" fill="url(#paint0_linear_215_39946)"/>
<path d="M69.6831 116.888C61.3206 125.25 54.6981 135.189 50.1937 146.136C45.6893 157.084 43.3912 168.826 43.4306 180.691C43.4701 192.557 45.8462 204.314 50.4235 215.292C55.0007 226.27 61.6894 236.253 70.1076 244.671C78.5259 253.089 88.5088 259.778 99.4864 264.355C110.464 268.932 122.221 271.308 134.087 271.348C145.953 271.387 157.695 269.089 168.642 264.585C179.589 260.08 189.528 253.458 197.891 245.095L179.826 227.031C173.82 233.037 166.682 237.793 158.82 241.028C150.957 244.263 142.524 245.914 134.002 245.886C125.48 245.857 117.036 244.151 109.152 240.863C101.268 237.576 94.0983 232.772 88.0523 226.726C82.0063 220.68 77.2025 213.51 73.9151 205.626C70.6277 197.742 68.9212 189.298 68.8929 180.776C68.8645 172.254 70.515 163.821 73.7501 155.959C76.9852 148.096 81.7415 140.958 87.7474 134.952L69.6831 116.888Z" fill="url(#paint1_linear_215_39946)"/>
<ellipse cx="115.203" cy="130.281" rx="4.20261" ry="4.20261" transform="rotate(90 115.203 130.281)" fill="url(#paint2_linear_215_39946)"/>
<ellipse cx="129.589" cy="130.281" rx="4.20261" ry="4.20261" transform="rotate(90 129.589 130.281)" fill="url(#paint3_linear_215_39946)"/>
<ellipse cx="143.589" cy="130.281" rx="4.20261" ry="4.20261" transform="rotate(90 143.589 130.281)" fill="url(#paint4_linear_215_39946)"/>
</g>
<defs>
<linearGradient id="paint0_linear_215_39946" x1="217.954" y1="148.748" x2="52.8874" y2="101.433" gradientUnits="userSpaceOnUse">
<stop stop-color="#E9366E"/>
<stop offset="1" stop-color="#F29A0B"/>
</linearGradient>
<linearGradient id="paint1_linear_215_39946" x1="49.6192" y1="213.235" x2="214.686" y2="260.55" gradientUnits="userSpaceOnUse">
<stop stop-color="#E9366E"/>
<stop offset="1" stop-color="#F29A0B"/>
</linearGradient>
<linearGradient id="paint2_linear_215_39946" x1="116.905" y1="134.122" x2="109.921" y2="130.276" gradientUnits="userSpaceOnUse">
<stop stop-color="#E9366E"/>
<stop offset="1" stop-color="#F29A0B"/>
</linearGradient>
<linearGradient id="paint3_linear_215_39946" x1="131.291" y1="134.122" x2="124.308" y2="130.276" gradientUnits="userSpaceOnUse">
<stop stop-color="#E9366E"/>
<stop offset="1" stop-color="#F29A0B"/>
</linearGradient>
<linearGradient id="paint4_linear_215_39946" x1="145.291" y1="134.122" x2="138.308" y2="130.276" gradientUnits="userSpaceOnUse">
<stop stop-color="#E9366E"/>
<stop offset="1" stop-color="#F29A0B"/>
</linearGradient>
</defs>
</svg>
