<svg width="205" height="179" viewBox="0 0 205 179" fill="none" xmlns="http://www.w3.org/2000/svg">
<mask id="mask0_141_8654" style="mask-type:alpha" maskUnits="userSpaceOnUse" x="0" y="0" width="205" height="179">
<rect y="0.80481" width="204.127" height="177.711" fill="#E42352"/>
</mask>
<g mask="url(#mask0_141_8654)">
<rect x="-18" y="-7" width="237" height="189" fill="url(#paint0_linear_141_8654)"/>
<circle opacity="0.55" r="188.313" transform="matrix(-0.913857 0.406037 0.406037 0.913857 210.13 77.6525)" fill="url(#paint1_linear_141_8654)"/>
<circle opacity="0.55" r="141.306" transform="matrix(-0.258819 -0.965926 -0.965926 0.258819 210.129 77.6524)" fill="url(#paint2_linear_141_8654)"/>
<circle opacity="0.15" r="97.5183" transform="matrix(-0.999681 0.0252621 0.0252621 0.999681 210.129 77.6524)" fill="url(#paint3_linear_141_8654)"/>
<path d="M217.962 4.29708C221.716 -0.963648 227.78 -4.0864 234.242 -4.0864L315.05 -4.0864C331.313 -4.0864 340.777 14.2918 331.331 27.5301L143.911 290.198C140.157 295.459 134.093 298.582 127.63 298.582H46.8231C30.5602 298.582 21.0966 280.204 30.5425 266.965L217.962 4.29708Z" fill="url(#paint4_linear_141_8654)"/>
</g>
<defs>
<linearGradient id="paint0_linear_141_8654" x1="122.512" y1="27.6154" x2="89.5668" y2="226.03" gradientUnits="userSpaceOnUse">
<stop stop-color="#F7A400"/>
<stop offset="0.682292" stop-color="#E8336E"/>
</linearGradient>
<linearGradient id="paint1_linear_141_8654" x1="264.58" y1="360.44" x2="199.71" y2="214.44" gradientUnits="userSpaceOnUse">
<stop stop-color="#F8A401"/>
<stop offset="1" stop-color="#E7395F"/>
</linearGradient>
<linearGradient id="paint2_linear_141_8654" x1="198.535" y1="270.467" x2="149.858" y2="160.911" gradientUnits="userSpaceOnUse">
<stop stop-color="#F8A401"/>
<stop offset="1" stop-color="#E7395F"/>
</linearGradient>
<linearGradient id="paint3_linear_141_8654" x1="137.013" y1="186.654" x2="103.42" y2="111.048" gradientUnits="userSpaceOnUse">
<stop stop-color="#F8A401"/>
<stop offset="1" stop-color="#F8A501"/>
</linearGradient>
<linearGradient id="paint4_linear_141_8654" x1="105.816" y1="-105.237" x2="434.974" y2="139.218" gradientUnits="userSpaceOnUse">
<stop stop-color="#F7A400"/>
<stop offset="1" stop-color="#E8336E"/>
</linearGradient>
</defs>
</svg>
