<svg width="284" height="148" viewBox="0 0 284 148" fill="none" xmlns="http://www.w3.org/2000/svg">
<mask id="mask0_302_4097" style="mask-type:alpha" maskUnits="userSpaceOnUse" x="0" y="0" width="284" height="148">
<rect width="284" height="148" fill="#E42352"/>
</mask>
<g mask="url(#mask0_302_4097)">
<path d="M140.245 65.4553C140.245 74.9213 133.064 82.2812 124.582 82.2812C116.099 82.2812 108.918 74.9213 108.918 65.4553C108.918 55.9893 116.099 48.6293 124.582 48.6293C133.064 48.6293 140.245 55.9893 140.245 65.4553Z" stroke="#256EEC" stroke-width="6"/>
<path d="M284 24.0159L239.77 49.2317L239.771 -1.19965L284 24.0159Z" fill="url(#paint0_linear_302_4097)"/>
<path d="M166.276 122.694C154.726 80.221 178.738 36.1298 219.909 24.2137" stroke="url(#paint1_linear_302_4097)" stroke-width="5"/>
<path d="M241.22 152.496C268.218 152.496 290.105 129.38 290.105 100.864" stroke="url(#paint2_linear_302_4097)" stroke-width="5"/>
<path d="M119.007 100.864C119.007 170.495 173.723 226.942 241.22 226.942" stroke="url(#paint3_linear_302_4097)" stroke-width="5"/>
</g>
<defs>
<linearGradient id="paint0_linear_302_4097" x1="252.929" y1="47.0643" x2="291.763" y2="28.3059" gradientUnits="userSpaceOnUse">
<stop stop-color="#E9366E"/>
<stop offset="1" stop-color="#F29A0B"/>
</linearGradient>
<linearGradient id="paint1_linear_302_4097" x1="166.276" y1="122.694" x2="219.324" y2="24.161" gradientUnits="userSpaceOnUse">
<stop stop-color="#00439D"/>
<stop offset="1" stop-color="#011632" stop-opacity="0"/>
</linearGradient>
<linearGradient id="paint2_linear_302_4097" x1="241.22" y1="152.496" x2="294.03" y2="105.492" gradientUnits="userSpaceOnUse">
<stop stop-color="#00439D"/>
<stop offset="1" stop-color="#011632"/>
</linearGradient>
<linearGradient id="paint3_linear_302_4097" x1="119.007" y1="100.864" x2="240.998" y2="226.655" gradientUnits="userSpaceOnUse">
<stop stop-color="#00439D"/>
<stop offset="1" stop-color="#011632"/>
</linearGradient>
</defs>
</svg>
