<svg width="253" height="46" viewBox="0 0 253 46" fill="none" xmlns="http://www.w3.org/2000/svg">
<path fill-rule="evenodd" clip-rule="evenodd" d="M17.4199 8.14473H20.8451L22.9003 21.3922L30.2401 8.14473H33.6653L28.5764 33.7564H24.7597L27.8914 17.8595L22.5088 28.065H20.3558L19.1814 17.8595L15.9519 33.8546H12.1352L17.4199 8.14473ZM44.2347 13.4437C44.2347 12.168 43.7453 11.1867 42.3752 11.1867C41.6902 11.1867 41.103 11.4811 40.6137 11.9718C39.7329 12.9531 39.1457 14.6213 37.9714 20.9015C37.2863 24.1398 36.8948 26.7893 36.8948 28.3593C36.8948 29.635 37.3842 30.6163 38.7543 30.6163C39.4393 30.6163 40.0265 30.3219 40.5158 29.8313C41.3966 28.85 41.9838 27.1818 43.1581 20.9015C43.7453 17.6633 44.2347 15.0138 44.2347 13.4437ZM37.9714 9.61667C39.2436 8.34099 40.7115 7.85034 42.6688 7.85034C44.9197 7.85034 46.2898 8.63537 47.0727 10.0092C47.7578 10.9905 47.9535 11.8736 47.9535 13.4437C47.9535 15.0138 47.562 17.467 46.877 20.9996C45.3112 28.7519 44.6261 30.7144 42.9624 32.2845C41.7881 33.4621 40.3201 34.0508 38.3628 34.0508C36.1119 34.0508 34.644 33.2658 33.8611 31.892C33.2739 30.9107 33.0781 30.0275 33.0781 28.4575C33.0781 26.8874 33.4696 24.4342 34.1547 20.9015C35.7205 13.1493 36.4055 11.1867 37.9714 9.61667ZM54.2168 30.3219C56.1741 30.3219 57.0548 29.2425 57.7399 25.9061C57.8378 25.2192 58.0335 24.336 58.0335 23.6491C58.0335 22.1772 57.5442 21.4903 55.8805 21.4903H53.9232L52.1616 30.3219H54.2168ZM52.7488 8.14473H63.9053L63.2203 11.5793H55.7826L54.5104 18.1539H56.4677C58.4249 18.1539 59.5993 18.5464 60.578 19.5277C61.4587 20.4109 61.7523 21.5884 61.7523 23.0604C61.7523 23.9435 61.6545 25.1211 61.4587 26.0042C60.1865 32.2845 57.8378 33.7564 54.0211 33.7564H47.6599L52.7488 8.14473ZM68.2114 8.14473H71.9302L68.8964 23.551L77.5084 8.14473H80.738L75.7469 33.7564H72.0281L75.0618 18.4483L66.6455 33.7564H63.3181L68.2114 8.14473ZM78.6828 30.3219H79.0743C81.1294 30.3219 82.4995 29.0462 83.7717 22.3735L86.6098 8.14473H97.962L92.971 33.6583H89.1543L93.4603 11.4811H89.4479L87.2948 22.3735C85.3376 32.1864 83.4782 33.6583 79.0743 33.6583H77.8999L78.6828 30.3219ZM103.442 30.3219C105.4 30.3219 106.28 29.2425 106.966 25.9061C107.063 25.2192 107.259 24.336 107.259 23.6491C107.259 22.1772 106.77 21.4903 105.106 21.4903H103.149L101.387 30.3219H103.442ZM101.974 8.14473H105.693L103.736 18.0558H105.693C107.651 18.0558 108.825 18.4483 109.804 19.4296C110.684 20.3127 110.978 21.4903 110.978 22.9622C110.978 23.8454 110.88 25.0229 110.684 25.9061C109.412 32.1864 107.063 33.6583 103.247 33.6583H96.8855L101.974 8.14473ZM117.437 8.14473H121.156L119.003 19.0371H123.7L125.853 8.14473H129.572L124.581 33.7564H120.862L123.113 22.4716H118.416L116.165 33.7564H112.446L117.437 8.14473ZM138.38 13.9343L134.172 25.1211H138.38V13.9343ZM138.38 33.7564V28.5556H132.802L130.747 33.7564H126.734L137.597 8.14473H141.316L142.099 33.7564H138.38ZM151.2 17.6633C151.2 19.2333 151.787 19.8221 153.353 19.8221H155.31L156.974 11.5793H154.919C152.962 11.5793 152.081 12.5605 151.494 15.7007C151.298 16.3876 151.2 17.0745 151.2 17.6633ZM149.243 22.1772C147.873 21.294 147.383 19.8221 147.383 18.1539C147.383 17.467 147.481 16.682 147.677 15.7007C148.949 9.51854 150.809 8.14473 155.213 8.14473H161.28L156.191 33.7564H152.472L154.625 23.1585H152.668L147.286 33.7564H143.175C143.175 33.6583 149.243 22.1772 149.243 22.1772ZM165.39 30.3219H165.782C167.837 30.3219 169.207 29.0462 170.479 22.3735L173.22 8.14473H184.572L179.581 33.7564H175.764L180.07 11.5793H176.155L174.002 22.4716C172.045 32.2845 170.186 33.7564 165.782 33.7564H164.607L165.39 30.3219ZM188.584 8.14473H198.664L197.979 11.5793H191.716L190.248 19.1352H195.63L194.945 22.4716H189.563L187.997 30.2238H194.26L193.575 33.6583H183.495L188.584 8.14473ZM201.894 8.14473H205.613L203.46 19.0371H208.157L210.31 8.14473H214.029L209.038 33.7564H205.319L207.57 22.4716H202.872L200.621 33.6583H196.903L201.894 8.14473ZM220.096 11.5793H216.084L216.769 8.14473H228.513L227.828 11.5793H223.815L219.509 33.7564H215.79L220.096 11.5793ZM234.58 13.9343L230.372 25.1211H234.58V13.9343ZM234.482 33.7564V28.5556H229.002L226.947 33.7564H222.934L233.797 8.14473H237.516L238.299 33.7564H234.482Z" fill="white"/>
<path fill-rule="evenodd" clip-rule="evenodd" d="M250.064 31.2806V43.0561H238.223V46H253V31.2806H250.064V31.2806Z" fill="white"/>
<path fill-rule="evenodd" clip-rule="evenodd" d="M2.93592 14.7194V2.94387H14.7775V0H0V14.7194H2.93592Z" fill="white"/>
</svg>
