<svg width="259" height="406" viewBox="0 0 259 406" fill="none" xmlns="http://www.w3.org/2000/svg">
<path d="M84.6046 296.5L-30 382.547" stroke="#0097D8" stroke-width="2.5" stroke-miterlimit="10"/>
<path d="M84.6046 311.816L-30 397.882" stroke="#0097D8" stroke-width="2.5" stroke-miterlimit="10"/>
<path d="M84.6046 327.153L-30 413.219" stroke="#0097D8" stroke-width="2.5" stroke-miterlimit="10"/>
<path d="M84.6046 342.487L-30 428.534" stroke="#0097D8" stroke-width="2.5" stroke-miterlimit="10"/>
<path d="M84.6046 357.804L-30 443.871" stroke="#0097D8" stroke-width="2.5" stroke-miterlimit="10"/>
<path d="M84.6046 373.138L-30 459.205" stroke="#0097D8" stroke-width="2.5" stroke-miterlimit="10"/>
<path d="M84.6046 388.474L-30 474.521" stroke="#0097D8" stroke-width="2.5" stroke-miterlimit="10"/>
<path d="M84.6046 403.791L-30 489.838" stroke="#0097D8" stroke-width="2.5" stroke-miterlimit="10"/>
<path fill-rule="evenodd" clip-rule="evenodd" d="M66.3993 18.1709C66.7526 18.6835 66.7526 19.361 66.3993 19.8735L54.3218 37.3956C53.8516 38.0777 52.9175 38.2495 52.2354 37.7793C51.5533 37.3092 51.3815 36.3751 51.8517 35.693L63.3425 19.0222L51.8517 2.35142C51.3815 1.66933 51.5533 0.735252 52.2354 0.265101C52.9175 -0.20505 53.8516 -0.0332378 54.3218 0.648854L66.3993 18.1709Z" fill="url(#paint0_linear_264_9331)"/>
<path fill-rule="evenodd" clip-rule="evenodd" d="M82.235 18.1709C82.5883 18.6835 82.5883 19.361 82.235 19.8735L70.1575 37.3956C69.6873 38.0777 68.7532 38.2495 68.0711 37.7793C67.389 37.3092 67.2172 36.3751 67.6874 35.693L79.1782 19.0222L67.6874 2.35142C67.2172 1.66933 67.389 0.735252 68.0711 0.265101C68.7532 -0.20505 69.6873 -0.0332378 70.1575 0.648854L82.235 18.1709Z" fill="url(#paint1_linear_264_9331)"/>
<path fill-rule="evenodd" clip-rule="evenodd" d="M50.5875 18.1709C50.9407 18.6835 50.9407 19.361 50.5875 19.8735L38.5099 37.3956C38.0397 38.0777 37.1056 38.2495 36.4235 37.7793C35.7415 37.3092 35.5696 36.3751 36.0398 35.693L47.5306 19.0222L36.0398 2.35142C35.5696 1.66933 35.7415 0.735252 36.4235 0.265101C37.1056 -0.20505 38.0397 -0.0332378 38.5099 0.648854L50.5875 18.1709Z" fill="url(#paint2_linear_264_9331)"/>
<path fill-rule="evenodd" clip-rule="evenodd" d="M34.7758 18.1709C35.1291 18.6835 35.1291 19.361 34.7758 19.8735L22.6982 37.3956C22.2281 38.0777 21.294 38.2495 20.6119 37.7793C19.9298 37.3092 19.758 36.3751 20.2281 35.693L31.719 19.0222L20.2282 2.35142C19.758 1.66933 19.9298 0.735252 20.6119 0.265101C21.294 -0.20505 22.2281 -0.0332378 22.6982 0.648854L34.7758 18.1709Z" fill="url(#paint3_linear_264_9331)"/>
<path fill-rule="evenodd" clip-rule="evenodd" d="M18.9549 18.1709C19.3082 18.6835 19.3082 19.361 18.9549 19.8735L6.8773 37.3956C6.40715 38.0777 5.47307 38.2495 4.79098 37.7793C4.10889 37.3092 3.93707 36.3751 4.40723 35.693L15.898 19.0222L4.40723 2.35142C3.93708 1.66933 4.10889 0.735252 4.79098 0.265101C5.47307 -0.20505 6.40715 -0.0332378 6.8773 0.648854L18.9549 18.1709Z" fill="url(#paint4_linear_264_9331)"/>
<path fill-rule="evenodd" clip-rule="evenodd" d="M3.1336 18.1709C3.48688 18.6835 3.48688 19.361 3.1336 19.8735L-8.94399 37.3956C-9.41414 38.0777 -10.3482 38.2495 -11.0303 37.7793C-11.7124 37.3092 -11.8842 36.3751 -11.4141 35.693L0.0767514 19.0222L-11.4141 2.35142C-11.8842 1.66933 -11.7124 0.735252 -11.0303 0.265101C-10.3482 -0.20505 -9.41414 -0.0332378 -8.94399 0.648854L3.1336 18.1709Z" fill="url(#paint5_linear_264_9331)"/>
<path d="M231 290.621V305.5" stroke="#013A82" stroke-width="2" stroke-linecap="round"/>
<path d="M231 251.5V266.379" stroke="#013A82" stroke-width="2" stroke-linecap="round"/>
<path d="M218.879 278.5L204 278.5" stroke="#013A82" stroke-width="2" stroke-linecap="round"/>
<path d="M258 278.5L243.121 278.5" stroke="#013A82" stroke-width="2" stroke-linecap="round"/>
<path d="M246.169 263.146L239.702 269.613" stroke="#013A82" stroke-width="2" stroke-linecap="round"/>
<path d="M222.298 287.017L215.831 293.484" stroke="#013A82" stroke-width="2" stroke-linecap="round"/>
<path d="M246.169 293.484L239.702 287.017" stroke="#013A82" stroke-width="2" stroke-linecap="round"/>
<path d="M222.298 269.613L215.831 263.146" stroke="#013A82" stroke-width="2" stroke-linecap="round"/>
<defs>
<linearGradient id="paint0_linear_264_9331" x1="52.2346" y1="26.7262" x2="71.7662" y2="12.6717" gradientUnits="userSpaceOnUse">
<stop stop-color="#E9366E"/>
<stop offset="1" stop-color="#F29A0B"/>
</linearGradient>
<linearGradient id="paint1_linear_264_9331" x1="68.0703" y1="26.7262" x2="87.6019" y2="12.6717" gradientUnits="userSpaceOnUse">
<stop stop-color="#E9366E"/>
<stop offset="1" stop-color="#F29A0B"/>
</linearGradient>
<linearGradient id="paint2_linear_264_9331" x1="36.4227" y1="26.7262" x2="55.9543" y2="12.6717" gradientUnits="userSpaceOnUse">
<stop stop-color="#E9366E"/>
<stop offset="1" stop-color="#F29A0B"/>
</linearGradient>
<linearGradient id="paint3_linear_264_9331" x1="20.611" y1="26.7262" x2="40.1427" y2="12.6717" gradientUnits="userSpaceOnUse">
<stop stop-color="#E9366E"/>
<stop offset="1" stop-color="#F29A0B"/>
</linearGradient>
<linearGradient id="paint4_linear_264_9331" x1="4.79012" y1="26.7262" x2="24.3218" y2="12.6717" gradientUnits="userSpaceOnUse">
<stop stop-color="#E9366E"/>
<stop offset="1" stop-color="#F29A0B"/>
</linearGradient>
<linearGradient id="paint5_linear_264_9331" x1="-11.0312" y1="26.7262" x2="8.50047" y2="12.6717" gradientUnits="userSpaceOnUse">
<stop stop-color="#E9366E"/>
<stop offset="1" stop-color="#F29A0B"/>
</linearGradient>
</defs>
</svg>
