<svg width="251" height="165" viewBox="0 0 251 165" fill="none" xmlns="http://www.w3.org/2000/svg">
<mask id="mask0_214_39735" style="mask-type:alpha" maskUnits="userSpaceOnUse" x="0" y="0" width="251" height="165">
<rect width="250.956" height="164.502" fill="url(#paint0_linear_214_39735)"/>
</mask>
<g mask="url(#mask0_214_39735)">
<g opacity="0.23">
<path d="M277.653 -75.6472L159.699 12.9143" stroke="#0252BD" stroke-width="2.5" stroke-miterlimit="10"/>
<path d="M277.653 -59.8842L159.699 28.6973" stroke="#0252BD" stroke-width="2.5" stroke-miterlimit="10"/>
<path d="M277.653 -44.0989L159.699 44.4827" stroke="#0252BD" stroke-width="2.5" stroke-miterlimit="10"/>
<path d="M277.653 -28.3167L159.699 60.2449" stroke="#0252BD" stroke-width="2.5" stroke-miterlimit="10"/>
<path d="M277.653 -12.5517L159.699 76.0298" stroke="#0252BD" stroke-width="2.5" stroke-miterlimit="10"/>
<path d="M277.653 3.2309L159.699 91.8125" stroke="#0252BD" stroke-width="2.5" stroke-miterlimit="10"/>
<path d="M277.653 19.0137L159.699 107.575" stroke="#0252BD" stroke-width="2.5" stroke-miterlimit="10"/>
<path d="M277.653 34.7789L159.699 123.34" stroke="#0252BD" stroke-width="2.5" stroke-miterlimit="10"/>
<path d="M277.653 50.5417L159.699 139.123" stroke="#0252BD" stroke-width="2.5" stroke-miterlimit="10"/>
<path d="M277.653 66.3271L159.699 154.909" stroke="#0252BD" stroke-width="2.5" stroke-miterlimit="10"/>
</g>
<path fill-rule="evenodd" clip-rule="evenodd" d="M212 90.4828C218.717 90.4828 224.627 84.7105 224.627 77C224.627 69.2895 218.717 63.5172 212 63.5172C205.283 63.5172 199.373 69.2895 199.373 77C199.373 84.7105 205.283 90.4828 212 90.4828ZM212 100C224.15 100 234 89.7025 234 77C234 64.2975 224.15 54 212 54C199.85 54 190 64.2975 190 77C190 89.7025 199.85 100 212 100Z" fill="url(#paint1_linear_214_39735)"/>
<ellipse cx="20.4533" cy="88.4564" rx="1.45332" ry="1.45622" fill="url(#paint2_linear_214_39735)"/>
<ellipse cx="41.7691" cy="88.4564" rx="1.45332" ry="1.45622" fill="url(#paint3_linear_214_39735)"/>
<ellipse cx="63.0837" cy="88.4564" rx="1.45332" ry="1.45622" fill="url(#paint4_linear_214_39735)"/>
<ellipse cx="63.0837" cy="109.814" rx="1.45332" ry="1.45622" fill="url(#paint5_linear_214_39735)"/>
<ellipse cx="43.7069" cy="109.814" rx="1.45332" ry="1.45622" fill="url(#paint6_linear_214_39735)"/>
<ellipse cx="63.0837" cy="131.173" rx="1.45332" ry="1.45622" fill="url(#paint7_linear_214_39735)"/>
</g>
<defs>
<linearGradient id="paint0_linear_214_39735" x1="70.9775" y1="-54.9762" x2="257.847" y2="130.277" gradientUnits="userSpaceOnUse">
<stop stop-color="#F7A400"/>
<stop offset="1" stop-color="#E8336E"/>
</linearGradient>
<linearGradient id="paint1_linear_214_39735" x1="220.91" y1="98.023" x2="183.614" y2="78.3748" gradientUnits="userSpaceOnUse">
<stop stop-color="#E9366E"/>
<stop offset="1" stop-color="#F29A0B"/>
</linearGradient>
<linearGradient id="paint2_linear_214_39735" x1="21.0419" y1="89.7875" x2="18.6247" y2="88.4588" gradientUnits="userSpaceOnUse">
<stop stop-color="#E9366E"/>
<stop offset="1" stop-color="#F29A0B"/>
</linearGradient>
<linearGradient id="paint3_linear_214_39735" x1="42.3577" y1="89.7875" x2="39.9405" y2="88.4588" gradientUnits="userSpaceOnUse">
<stop stop-color="#E9366E"/>
<stop offset="1" stop-color="#F29A0B"/>
</linearGradient>
<linearGradient id="paint4_linear_214_39735" x1="63.6723" y1="89.7875" x2="61.2551" y2="88.4588" gradientUnits="userSpaceOnUse">
<stop stop-color="#E9366E"/>
<stop offset="1" stop-color="#F29A0B"/>
</linearGradient>
<linearGradient id="paint5_linear_214_39735" x1="63.6723" y1="111.145" x2="61.2551" y2="109.817" gradientUnits="userSpaceOnUse">
<stop stop-color="#E9366E"/>
<stop offset="1" stop-color="#F29A0B"/>
</linearGradient>
<linearGradient id="paint6_linear_214_39735" x1="44.2954" y1="111.145" x2="41.8782" y2="109.817" gradientUnits="userSpaceOnUse">
<stop stop-color="#E9366E"/>
<stop offset="1" stop-color="#F29A0B"/>
</linearGradient>
<linearGradient id="paint7_linear_214_39735" x1="63.6723" y1="132.504" x2="61.2551" y2="131.175" gradientUnits="userSpaceOnUse">
<stop stop-color="#E9366E"/>
<stop offset="1" stop-color="#F29A0B"/>
</linearGradient>
</defs>
</svg>
