<svg width="158" height="155" viewBox="0 0 158 155" fill="none" xmlns="http://www.w3.org/2000/svg">
<mask id="mask0_141_9005" style="mask-type:alpha" maskUnits="userSpaceOnUse" x="0" y="0" width="158" height="155">
<rect y="0.565826" width="157.298" height="153.696" fill="#E42352"/>
</mask>
<g mask="url(#mask0_141_9005)">
<path d="M197.891 245.661C206.253 237.298 212.876 227.36 217.38 216.412C221.884 205.465 224.183 193.723 224.143 181.857C224.104 169.992 221.727 158.234 217.15 147.257C212.573 136.279 205.884 126.296 197.466 117.878C189.048 109.46 179.065 102.771 168.087 98.1938C157.11 93.6166 145.352 91.2404 133.487 91.201C121.621 91.1616 109.879 93.4597 98.9317 97.9641C87.9843 102.468 78.0456 109.091 69.6831 117.453L87.7474 135.518C93.7534 129.512 100.891 124.756 108.754 121.52C116.616 118.285 125.049 116.635 133.571 116.663C142.093 116.692 150.537 118.398 158.422 121.685C166.306 124.973 173.475 129.777 179.521 135.823C185.567 141.869 190.371 149.038 193.659 156.923C196.946 164.807 198.653 173.251 198.681 181.773C198.709 190.295 197.059 198.728 193.824 206.59C190.589 214.453 185.832 221.591 179.826 227.597L197.891 245.661Z" fill="url(#paint0_linear_141_9005)"/>
<path d="M69.6826 117.454C61.3201 125.816 54.6976 135.755 50.1932 146.702C45.6888 157.65 43.3907 169.391 43.4301 181.257C43.4696 193.123 45.8457 204.88 50.423 215.858C55.0002 226.835 61.6889 236.818 70.1071 245.237C78.5254 253.655 88.5083 260.343 99.4859 264.921C110.463 269.498 122.221 271.874 134.087 271.914C145.952 271.953 157.694 269.655 168.642 265.15C179.589 260.646 189.528 254.024 197.89 245.661L179.826 227.597C173.82 233.603 166.682 238.359 158.819 241.594C150.957 244.829 142.524 246.48 134.002 246.451C125.48 246.423 117.036 244.716 109.152 241.429C101.268 238.142 94.0978 233.338 88.0518 227.292C82.0058 221.246 77.202 214.076 73.9146 206.192C70.6273 198.308 68.9207 189.864 68.8924 181.342C68.8641 172.82 70.5146 164.387 73.7496 156.524C76.9847 148.662 81.741 141.524 87.7469 135.518L69.6826 117.454Z" fill="url(#paint1_linear_141_9005)"/>
<ellipse cx="115.203" cy="130.847" rx="4.20261" ry="4.20261" transform="rotate(90 115.203 130.847)" fill="url(#paint2_linear_141_9005)"/>
<ellipse cx="129.589" cy="130.847" rx="4.20261" ry="4.20261" transform="rotate(90 129.589 130.847)" fill="url(#paint3_linear_141_9005)"/>
<ellipse cx="143.589" cy="130.847" rx="4.20261" ry="4.20261" transform="rotate(90 143.589 130.847)" fill="url(#paint4_linear_141_9005)"/>
</g>
<defs>
<linearGradient id="paint0_linear_141_9005" x1="217.955" y1="149.313" x2="52.8877" y2="101.999" gradientUnits="userSpaceOnUse">
<stop stop-color="#E9366E"/>
<stop offset="1" stop-color="#F29A0B"/>
</linearGradient>
<linearGradient id="paint1_linear_141_9005" x1="6.00001" y1="98" x2="67.4351" y2="258.642" gradientUnits="userSpaceOnUse">
<stop stop-color="#E9366E"/>
<stop offset="1" stop-color="#F29A0B"/>
</linearGradient>
<linearGradient id="paint2_linear_141_9005" x1="116.905" y1="134.688" x2="109.921" y2="130.842" gradientUnits="userSpaceOnUse">
<stop stop-color="#E9366E"/>
<stop offset="1" stop-color="#F29A0B"/>
</linearGradient>
<linearGradient id="paint3_linear_141_9005" x1="131.291" y1="134.688" x2="124.308" y2="130.842" gradientUnits="userSpaceOnUse">
<stop stop-color="#E9366E"/>
<stop offset="1" stop-color="#F29A0B"/>
</linearGradient>
<linearGradient id="paint4_linear_141_9005" x1="145.291" y1="134.688" x2="138.308" y2="130.842" gradientUnits="userSpaceOnUse">
<stop stop-color="#E9366E"/>
<stop offset="1" stop-color="#F29A0B"/>
</linearGradient>
</defs>
</svg>
