<svg width="251" height="256" viewBox="0 0 251 256" fill="none" xmlns="http://www.w3.org/2000/svg">
<mask id="mask0_215_39907" style="mask-type:alpha" maskUnits="userSpaceOnUse" x="0" y="0" width="251" height="256">
<rect width="250.956" height="255.759" fill="#E42352"/>
</mask>
<g mask="url(#mask0_215_39907)">
<path opacity="0.44" d="M194.385 127.875L71 -6.50232H212.529H487.659V252.859H307.671L194.385 127.875Z" fill="url(#paint0_linear_215_39907)" fill-opacity="0.2"/>
<path fill-rule="evenodd" clip-rule="evenodd" d="M196.052 55.4399L196.052 52.2091L192.828 52.2091L192.828 51.626L196.052 51.626L196.052 48.3952L196.634 48.3952L196.634 51.626L199.858 51.626L199.858 52.2091L196.634 52.2091L196.634 55.4399L196.052 55.4399Z" fill="#10458B"/>
<path fill-rule="evenodd" clip-rule="evenodd" d="M196.052 36.9891L196.052 33.7583L192.828 33.7583L192.828 33.1752L196.052 33.1752L196.052 29.9444L196.634 29.9444L196.634 33.1752L199.858 33.1752L199.858 33.7583L196.634 33.7583L196.634 36.9891L196.052 36.9891Z" fill="#10458B"/>
<path fill-rule="evenodd" clip-rule="evenodd" d="M214.623 36.9891L214.623 33.7583L211.398 33.7583L211.398 33.1752L214.623 33.1752L214.623 29.9444L215.205 29.9444L215.205 33.1752L218.429 33.1752L218.429 33.7583L215.205 33.7583L215.205 36.9891L214.623 36.9891Z" fill="#10458B"/>
<path fill-rule="evenodd" clip-rule="evenodd" d="M214.623 55.44L214.623 52.2091L211.398 52.2091L211.398 51.6261L214.623 51.6261L214.623 48.3952L215.205 48.3952L215.205 51.6261L218.429 51.6261L218.429 52.2091L215.205 52.2091L215.205 55.44L214.623 55.44Z" fill="#10458B"/>
<path fill-rule="evenodd" clip-rule="evenodd" d="M232.442 76.561L232.442 73.3302L229.218 73.3302L229.218 72.7471L232.442 72.7471L232.442 69.5163L233.024 69.5163L233.024 72.7471L236.248 72.7471L236.248 73.3302L233.024 73.3302L233.024 76.561L232.442 76.561Z" fill="#10458B"/>
<path fill-rule="evenodd" clip-rule="evenodd" d="M214.623 75.8077L214.623 72.5768L211.398 72.5768L211.398 71.9938L214.623 71.9938L214.623 68.7629L215.205 68.7629L215.205 71.9938L218.429 71.9938L218.429 72.5768L215.205 72.5768L215.205 75.8077L214.623 75.8077Z" fill="#10458B"/>
<path fill-rule="evenodd" clip-rule="evenodd" d="M233.194 55.44L233.194 52.2091L229.969 52.2091L229.969 51.6261L233.194 51.6261L233.194 48.3952L233.776 48.3952L233.776 51.6261L237 51.6261L237 52.2091L233.776 52.2091L233.776 55.44L233.194 55.44Z" fill="#10458B"/>
<path fill-rule="evenodd" clip-rule="evenodd" d="M177.639 36.9891L177.639 33.7583L174.414 33.7583L174.414 33.1752L177.639 33.1752L177.639 29.9444L178.22 29.9444L178.22 33.1752L181.445 33.1752L181.445 33.7583L178.22 33.7583L178.22 36.9891L177.639 36.9891Z" fill="#10458B"/>
<path fill-rule="evenodd" clip-rule="evenodd" d="M177.639 18.5389L177.639 15.3081L174.414 15.3081L174.414 14.725L177.639 14.725L177.639 11.4942L178.22 11.4942L178.22 14.725L181.445 14.725L181.445 15.3081L178.22 15.3081L178.22 18.5389L177.639 18.5389Z" fill="#10458B"/>
<path fill-rule="evenodd" clip-rule="evenodd" d="M159.224 18.5389L159.224 15.3081L156 15.3081L156 14.725L159.224 14.725L159.224 11.4942L159.806 11.4942L159.806 14.725L163.031 14.725L163.031 15.3081L159.806 15.3081L159.806 18.5389L159.224 18.5389Z" fill="#10458B"/>
<path fill-rule="evenodd" clip-rule="evenodd" d="M196.052 18.5389L196.052 15.3081L192.828 15.3081L192.828 14.725L196.052 14.725L196.052 11.4942L196.634 11.4942L196.634 14.725L199.858 14.725L199.858 15.3081L196.634 15.3081L196.634 18.5389L196.052 18.5389Z" fill="#10458B"/>
</g>
<defs>
<linearGradient id="paint0_linear_215_39907" x1="279.33" y1="-6.50232" x2="279.33" y2="252.859" gradientUnits="userSpaceOnUse">
<stop stop-color="#C4C4C4"/>
<stop offset="1" stop-color="#C4C4C4" stop-opacity="0"/>
</linearGradient>
</defs>
</svg>
