<svg width="467" height="140" viewBox="0 0 467 140" fill="none" xmlns="http://www.w3.org/2000/svg">
<mask id="mask0_141_8529" style="mask-type:alpha" maskUnits="userSpaceOnUse" x="0" y="0" width="467" height="140">
<rect x="0.253906" width="465.89" height="139.287" fill="#E42352"/>
</mask>
<g mask="url(#mask0_141_8529)">
<path fill-rule="evenodd" clip-rule="evenodd" d="M432.995 81.7582C342.265 122.151 236.034 81.1979 195.722 -9.71362C155.41 -100.625 196.281 -207.069 287.011 -247.462C377.741 -287.855 483.972 -246.901 524.285 -155.99C564.597 -65.0782 523.725 41.3652 432.995 81.7582ZM396.442 47.2868C324.712 67.4512 250.249 25.5327 230.125 -46.3408C210.001 -118.214 251.836 -192.826 323.566 -212.99C395.296 -233.155 469.758 -191.236 489.882 -119.363C510.007 -47.4892 468.172 27.1223 396.442 47.2868Z" fill="url(#paint0_linear_141_8529)"/>
<ellipse rx="93.0927" ry="93.2786" transform="matrix(-0.99968 0.0253126 0.0252117 0.999682 360.004 -82.8514)" fill="url(#paint1_linear_141_8529)"/>
<circle cx="37.171" cy="98.857" r="4.85704" fill="#012861"/>
<circle cx="55.484" cy="98.857" r="4.35704" stroke="#1A5097"/>
<circle cx="18.857" cy="117.168" r="4.35704" stroke="#1A5097"/>
<circle cx="37.171" cy="117.168" r="4.35704" stroke="#1A5097"/>
<circle cx="55.484" cy="117.168" r="4.35704" stroke="#1A5097"/>
</g>
<defs>
<linearGradient id="paint0_linear_141_8529" x1="393.405" y1="-197.026" x2="315.688" y2="175.481" gradientUnits="userSpaceOnUse">
<stop stop-color="#F7A400"/>
<stop offset="0.682292" stop-color="#E8336E"/>
</linearGradient>
<linearGradient id="paint1_linear_141_8529" x1="110.385" y1="34.168" x2="70.15" y2="227.023" gradientUnits="userSpaceOnUse">
<stop stop-color="#F7A400"/>
<stop offset="0.682292" stop-color="#E8336E"/>
</linearGradient>
</defs>
</svg>
