<svg width="284" height="148" viewBox="0 0 284 148" fill="none" xmlns="http://www.w3.org/2000/svg">
<mask id="mask0_141_8546" style="mask-type:alpha" maskUnits="userSpaceOnUse" x="0" y="0" width="284" height="148">
<rect width="284" height="148" fill="#E42352"/>
</mask>
<g mask="url(#mask0_141_8546)">
<rect x="-48.8857" y="-21.6125" width="368.967" height="261.763" fill="url(#paint0_linear_141_8546)"/>
<g style="mix-blend-mode:soft-light">
<path d="M140.245 65.4552C140.245 74.9213 133.064 82.2812 124.582 82.2812C116.099 82.2812 108.918 74.9213 108.918 65.4552C108.918 55.9892 116.099 48.6293 124.582 48.6293C133.064 48.6293 140.245 55.9892 140.245 65.4552Z" stroke="#8999B2" stroke-width="6"/>
</g>
<path d="M284 24.0159L239.77 49.2317L239.771 -1.19965L284 24.0159Z" fill="url(#paint1_linear_141_8546)"/>
<path d="M166.276 122.694C154.725 80.2209 178.737 36.1298 219.908 24.2137" stroke="url(#paint2_linear_141_8546)" stroke-width="5"/>
<path fill-rule="evenodd" clip-rule="evenodd" d="M83.9142 67.8822C102.875 -21.7346 188.625 -78.4112 275.328 -58.8879L276.363 -63.7797C186.837 -83.9387 98.5411 -25.4031 79.0364 66.7839L83.9142 67.8822Z" fill="url(#paint3_linear_141_8546)"/>
<path d="M241.219 152.496C268.218 152.496 290.104 129.38 290.104 100.864" stroke="url(#paint4_linear_141_8546)" stroke-width="5"/>
<path d="M119.006 100.864C119.006 170.495 173.722 226.942 241.219 226.942" stroke="url(#paint5_linear_141_8546)" stroke-width="5"/>
</g>
<defs>
<linearGradient id="paint0_linear_141_8546" x1="169.867" y1="26.3294" x2="129.046" y2="302.677" gradientUnits="userSpaceOnUse">
<stop stop-color="#F7A400"/>
<stop offset="0.682292" stop-color="#E8336E"/>
</linearGradient>
<linearGradient id="paint1_linear_141_8546" x1="252.929" y1="47.0643" x2="291.763" y2="28.3059" gradientUnits="userSpaceOnUse">
<stop stop-color="#E9366E"/>
<stop offset="1" stop-color="#F29A0B"/>
</linearGradient>
<linearGradient id="paint2_linear_141_8546" x1="166.276" y1="122.694" x2="219.324" y2="24.161" gradientUnits="userSpaceOnUse">
<stop stop-color="#00439D"/>
<stop offset="1" stop-color="#011632" stop-opacity="0"/>
</linearGradient>
<linearGradient id="paint3_linear_141_8546" x1="128.746" y1="70.4563" x2="280.229" y2="26.8437" gradientUnits="userSpaceOnUse">
<stop stop-color="#E9366E"/>
<stop offset="1" stop-color="#F29A0B"/>
</linearGradient>
<linearGradient id="paint4_linear_141_8546" x1="241.219" y1="152.496" x2="294.029" y2="105.492" gradientUnits="userSpaceOnUse">
<stop stop-color="#00439D"/>
<stop offset="1" stop-color="#011632"/>
</linearGradient>
<linearGradient id="paint5_linear_141_8546" x1="119.006" y1="100.864" x2="240.997" y2="226.655" gradientUnits="userSpaceOnUse">
<stop stop-color="#00439D"/>
<stop offset="1" stop-color="#011632"/>
</linearGradient>
</defs>
</svg>
