<svg width="228" height="248" viewBox="0 0 228 248" fill="none" xmlns="http://www.w3.org/2000/svg">
<g clip-path="url(#clip0_301_4106)">
<path d="M254.821 51.7093L179.906 94.4193L179.906 8.99999L254.821 51.7093Z" fill="url(#paint0_linear_301_4106)"/>
<path fill-rule="evenodd" clip-rule="evenodd" d="M-2.17459 218.153C-21.3931 147.484 18.5727 74.2388 86.921 54.4568L85.6089 49.6321C14.4884 70.2163 -26.8876 146.332 -6.97747 219.543L-2.17459 218.153Z" fill="url(#paint1_linear_301_4106)"/>
<path fill-rule="evenodd" clip-rule="evenodd" d="M122.361 266.826C166.582 266.826 202.661 228.921 202.661 181.872L207.661 181.872C207.661 231.422 169.598 271.826 122.361 271.826L122.361 266.826Z" fill="url(#paint2_linear_301_4106)"/>
</g>
<defs>
<linearGradient id="paint0_linear_301_4106" x1="217.363" y1="9" x2="217.363" y2="94.4193" gradientUnits="userSpaceOnUse">
<stop stop-color="#DD9300"/>
<stop offset="1" stop-color="#EB4959"/>
</linearGradient>
<linearGradient id="paint1_linear_301_4106" x1="-4.57602" y1="218.848" x2="85.2752" y2="51.9551" gradientUnits="userSpaceOnUse">
<stop stop-color="#EE6A26"/>
<stop offset="1" stop-color="#E66934"/>
</linearGradient>
<linearGradient id="paint2_linear_301_4106" x1="122.361" y1="269.326" x2="211.809" y2="189.712" gradientUnits="userSpaceOnUse">
<stop stop-color="#FF6E00"/>
<stop offset="1" stop-color="#E66736"/>
</linearGradient>
<clipPath id="clip0_301_4106">
<rect width="227.441" height="247.634" fill="white"/>
</clipPath>
</defs>
</svg>
