<svg width="700" height="398" viewBox="0 0 700 398" fill="none" xmlns="http://www.w3.org/2000/svg">
<rect width="700" height="398" fill="url(#paint0_linear_224_6301)"/>
<mask id="mask0_224_6301" style="mask-type:alpha" maskUnits="userSpaceOnUse" x="0" y="0" width="700" height="398">
<rect width="700" height="398" fill="#D9D9D9"/>
</mask>
<g mask="url(#mask0_224_6301)">
<path fill-rule="evenodd" clip-rule="evenodd" d="M82.0539 344.958C69.3712 299.609 22.3138 273.14 -23.0741 285.877C-68.4619 298.614 -94.9427 345.72 -82.2601 391.069C-69.5774 436.418 -22.52 462.887 22.8679 450.15C68.2557 437.413 94.7365 390.307 82.0539 344.958ZM127.977 332.071C108.195 261.34 34.8161 220.092 -35.9204 239.943C-106.657 259.793 -147.964 333.224 -128.183 403.956C-108.401 474.687 -35.0223 515.934 35.7141 496.084C106.451 476.234 147.758 402.802 127.977 332.071Z" fill="url(#paint1_linear_224_6301)"/>
<path d="M34 354.877V367" stroke="white" stroke-width="2" stroke-linecap="round"/>
<path d="M34 323V335.124" stroke="white" stroke-width="2" stroke-linecap="round"/>
<path d="M24.1235 345L12.0001 345" stroke="white" stroke-width="2" stroke-linecap="round"/>
<path d="M56 345L43.8765 345" stroke="white" stroke-width="2" stroke-linecap="round"/>
<path d="M46.3599 332.49L41.0903 337.759" stroke="white" stroke-width="2" stroke-linecap="round"/>
<path d="M26.9097 351.94L21.6401 357.21" stroke="white" stroke-width="2" stroke-linecap="round"/>
<path d="M46.3599 357.21L41.0903 351.94" stroke="white" stroke-width="2" stroke-linecap="round"/>
<path d="M26.9097 337.759L21.6401 332.49" stroke="white" stroke-width="2" stroke-linecap="round"/>
<path fill-rule="evenodd" clip-rule="evenodd" d="M642.084 219.739L717.063 163.443L715.98 162L641 218.296L642.084 219.739Z" fill="url(#paint2_linear_224_6301)"/>
<path fill-rule="evenodd" clip-rule="evenodd" d="M642.084 229.772L717.063 173.463L715.979 172.02L641 228.329L642.084 229.772Z" fill="url(#paint3_linear_224_6301)"/>
<path fill-rule="evenodd" clip-rule="evenodd" d="M642.084 239.804L717.063 183.496L715.979 182.053L641 238.361L642.084 239.804Z" fill="url(#paint4_linear_224_6301)"/>
<path fill-rule="evenodd" clip-rule="evenodd" d="M642.084 249.827L717.063 193.531L715.98 192.088L641 248.384L642.084 249.827Z" fill="url(#paint5_linear_224_6301)"/>
<path fill-rule="evenodd" clip-rule="evenodd" d="M642.084 259.86L717.063 203.551L715.979 202.108L641 258.417L642.084 259.86Z" fill="url(#paint6_linear_224_6301)"/>
<path fill-rule="evenodd" clip-rule="evenodd" d="M642.084 269.892L717.063 213.583L715.979 212.14L641 268.449L642.084 269.892Z" fill="url(#paint7_linear_224_6301)"/>
<path fill-rule="evenodd" clip-rule="evenodd" d="M642.084 279.912L717.063 223.616L715.98 222.173L641 278.469L642.084 279.912Z" fill="url(#paint8_linear_224_6301)"/>
<path fill-rule="evenodd" clip-rule="evenodd" d="M642.084 289.934L717.063 233.639L715.98 232.196L641 288.492L642.084 289.934Z" fill="url(#paint9_linear_224_6301)"/>
<path fill-rule="evenodd" clip-rule="evenodd" d="M642.084 299.968L717.063 243.659L715.979 242.216L641 298.525L642.084 299.968Z" fill="url(#paint10_linear_224_6301)"/>
<path fill-rule="evenodd" clip-rule="evenodd" d="M642.084 310L717.063 253.691L715.979 252.248L641 308.557L642.084 310Z" fill="url(#paint11_linear_224_6301)"/>
<g opacity="0.33">
<circle r="2.51823" transform="matrix(4.37114e-08 -1 -1 -4.37114e-08 471.028 69.8976)" fill="#4E8FFF"/>
<circle r="2.51823" transform="matrix(4.37114e-08 -1 -1 -4.37114e-08 471.028 61.084)" fill="#4E8FFF"/>
<circle r="2.51823" transform="matrix(4.37114e-08 -1 -1 -4.37114e-08 471.028 52.2702)" fill="#4E8FFF"/>
<circle r="2.51823" transform="matrix(4.37114e-08 -1 -1 -4.37114e-08 471.028 43.4564)" fill="#4E8FFF"/>
<circle r="2.51823" transform="matrix(4.37114e-08 -1 -1 -4.37114e-08 471.028 34.6426)" fill="#4E8FFF"/>
<circle r="2.51823" transform="matrix(4.37114e-08 -1 -1 -4.37114e-08 471.028 25.8289)" fill="#4E8FFF"/>
<circle r="2.51823" transform="matrix(4.37114e-08 -1 -1 -4.37114e-08 471.028 17.0151)" fill="#4E8FFF"/>
<circle r="2.51823" transform="matrix(4.37114e-08 -1 -1 -4.37114e-08 471.028 8.20126)" fill="#4E8FFF"/>
<circle r="2.51823" transform="matrix(4.37114e-08 -1 -1 -4.37114e-08 471.028 -0.612342)" fill="#4E8FFF"/>
<circle r="2.51823" transform="matrix(4.37114e-08 -1 -1 -4.37114e-08 453.401 69.8976)" fill="#4E8FFF"/>
<circle r="2.51823" transform="matrix(4.37114e-08 -1 -1 -4.37114e-08 453.401 61.084)" fill="#4E8FFF"/>
<circle r="2.51823" transform="matrix(4.37114e-08 -1 -1 -4.37114e-08 453.401 52.2702)" fill="#4E8FFF"/>
<circle r="2.51823" transform="matrix(4.37114e-08 -1 -1 -4.37114e-08 453.401 43.4562)" fill="#4E8FFF"/>
<circle r="2.51823" transform="matrix(4.37114e-08 -1 -1 -4.37114e-08 453.401 34.6426)" fill="#4E8FFF"/>
<circle r="2.51823" transform="matrix(4.37114e-08 -1 -1 -4.37114e-08 453.401 25.8289)" fill="#4E8FFF"/>
<circle r="2.51823" transform="matrix(4.37114e-08 -1 -1 -4.37114e-08 453.401 17.0151)" fill="#4E8FFF"/>
<circle r="2.51823" transform="matrix(4.37114e-08 -1 -1 -4.37114e-08 453.401 8.20126)" fill="#4E8FFF"/>
<circle r="2.51823" transform="matrix(4.37114e-08 -1 -1 -4.37114e-08 453.401 -0.612342)" fill="#4E8FFF"/>
<circle r="2.51823" transform="matrix(4.37114e-08 -1 -1 -4.37114e-08 435.774 69.8976)" fill="#4E8FFF"/>
<circle r="2.51823" transform="matrix(4.37114e-08 -1 -1 -4.37114e-08 435.774 61.084)" fill="#4E8FFF"/>
<circle r="2.51823" transform="matrix(4.37114e-08 -1 -1 -4.37114e-08 435.774 52.2702)" fill="#4E8FFF"/>
<circle r="2.51823" transform="matrix(4.37114e-08 -1 -1 -4.37114e-08 435.774 43.4564)" fill="#4E8FFF"/>
<circle r="2.51823" transform="matrix(4.37114e-08 -1 -1 -4.37114e-08 435.774 34.6426)" fill="#4E8FFF"/>
<circle r="2.51823" transform="matrix(4.37114e-08 -1 -1 -4.37114e-08 435.774 25.8289)" fill="#4E8FFF"/>
<circle r="2.51823" transform="matrix(4.37114e-08 -1 -1 -4.37114e-08 435.774 17.0151)" fill="#4E8FFF"/>
<circle r="2.51823" transform="matrix(4.37114e-08 -1 -1 -4.37114e-08 435.774 8.20126)" fill="#4E8FFF"/>
<circle r="2.51823" transform="matrix(4.37114e-08 -1 -1 -4.37114e-08 435.774 -0.612342)" fill="#4E8FFF"/>
<circle r="2.51823" transform="matrix(4.37114e-08 -1 -1 -4.37114e-08 418.146 69.8976)" fill="#4E8FFF"/>
<circle r="2.51823" transform="matrix(4.37114e-08 -1 -1 -4.37114e-08 418.146 61.084)" fill="#4E8FFF"/>
<circle r="2.51823" transform="matrix(4.37114e-08 -1 -1 -4.37114e-08 418.146 52.2702)" fill="#4E8FFF"/>
<circle r="2.51823" transform="matrix(4.37114e-08 -1 -1 -4.37114e-08 418.146 43.4562)" fill="#4E8FFF"/>
<circle r="2.51823" transform="matrix(4.37114e-08 -1 -1 -4.37114e-08 418.146 34.6426)" fill="#4E8FFF"/>
<circle r="2.51823" transform="matrix(4.37114e-08 -1 -1 -4.37114e-08 418.146 25.8289)" fill="#4E8FFF"/>
<circle r="2.51823" transform="matrix(4.37114e-08 -1 -1 -4.37114e-08 418.146 17.0151)" fill="#4E8FFF"/>
<circle r="2.51823" transform="matrix(4.37114e-08 -1 -1 -4.37114e-08 418.146 8.20126)" fill="#4E8FFF"/>
<circle r="2.51823" transform="matrix(4.37114e-08 -1 -1 -4.37114e-08 418.146 -0.612342)" fill="#4E8FFF"/>
<circle r="2.51823" transform="matrix(4.37114e-08 -1 -1 -4.37114e-08 400.518 69.8976)" fill="#4E8FFF"/>
<circle r="2.51823" transform="matrix(4.37114e-08 -1 -1 -4.37114e-08 400.518 61.084)" fill="#4E8FFF"/>
<circle r="2.51823" transform="matrix(4.37114e-08 -1 -1 -4.37114e-08 400.518 52.2702)" fill="#4E8FFF"/>
<circle r="2.51823" transform="matrix(4.37114e-08 -1 -1 -4.37114e-08 400.518 43.4564)" fill="#4E8FFF"/>
<circle r="2.51823" transform="matrix(4.37114e-08 -1 -1 -4.37114e-08 400.518 34.6426)" fill="#4E8FFF"/>
<circle r="2.51823" transform="matrix(4.37114e-08 -1 -1 -4.37114e-08 400.518 25.8289)" fill="#4E8FFF"/>
<circle r="2.51823" transform="matrix(4.37114e-08 -1 -1 -4.37114e-08 400.518 17.0151)" fill="#4E8FFF"/>
<circle r="2.51823" transform="matrix(4.37114e-08 -1 -1 -4.37114e-08 400.518 8.20126)" fill="#4E8FFF"/>
<circle r="2.51823" transform="matrix(4.37114e-08 -1 -1 -4.37114e-08 400.518 -0.612342)" fill="#4E8FFF"/>
<circle r="2.51823" transform="matrix(4.37114e-08 -1 -1 -4.37114e-08 444.588 65.4907)" fill="#4E8FFF"/>
<circle r="2.51823" transform="matrix(4.37114e-08 -1 -1 -4.37114e-08 444.588 56.6774)" fill="#4E8FFF"/>
<circle r="2.51823" transform="matrix(4.37114e-08 -1 -1 -4.37114e-08 444.588 47.8633)" fill="#4E8FFF"/>
<circle r="2.51823" transform="matrix(4.37114e-08 -1 -1 -4.37114e-08 444.588 39.05)" fill="#4E8FFF"/>
<circle r="2.51823" transform="matrix(4.37114e-08 -1 -1 -4.37114e-08 444.588 30.236)" fill="#4E8FFF"/>
<circle r="2.51823" transform="matrix(4.37114e-08 -1 -1 -4.37114e-08 444.588 21.4221)" fill="#4E8FFF"/>
<circle r="2.51823" transform="matrix(4.37114e-08 -1 -1 -4.37114e-08 444.588 12.6085)" fill="#4E8FFF"/>
<circle r="2.51823" transform="matrix(4.37114e-08 -1 -1 -4.37114e-08 444.588 3.79443)" fill="#4E8FFF"/>
<circle r="2.51823" transform="matrix(4.37114e-08 -1 -1 -4.37114e-08 462.215 65.4909)" fill="#4E8FFF"/>
<circle r="2.51823" transform="matrix(4.37114e-08 -1 -1 -4.37114e-08 462.215 56.6774)" fill="#4E8FFF"/>
<circle r="2.51823" transform="matrix(4.37114e-08 -1 -1 -4.37114e-08 462.215 47.8633)" fill="#4E8FFF"/>
<circle r="2.51823" transform="matrix(4.37114e-08 -1 -1 -4.37114e-08 462.215 39.05)" fill="#4E8FFF"/>
<circle r="2.51823" transform="matrix(4.37114e-08 -1 -1 -4.37114e-08 462.215 30.236)" fill="#4E8FFF"/>
<circle r="2.51823" transform="matrix(4.37114e-08 -1 -1 -4.37114e-08 462.215 21.4221)" fill="#4E8FFF"/>
<circle r="2.51823" transform="matrix(4.37114e-08 -1 -1 -4.37114e-08 462.215 12.6085)" fill="#4E8FFF"/>
<circle r="2.51823" transform="matrix(4.37114e-08 -1 -1 -4.37114e-08 462.215 3.79449)" fill="#4E8FFF"/>
<circle r="2.51823" transform="matrix(4.37114e-08 -1 -1 -4.37114e-08 426.96 65.4907)" fill="#4E8FFF"/>
<circle r="2.51823" transform="matrix(4.37114e-08 -1 -1 -4.37114e-08 426.96 56.6774)" fill="#4E8FFF"/>
<circle r="2.51823" transform="matrix(4.37114e-08 -1 -1 -4.37114e-08 426.96 47.8633)" fill="#4E8FFF"/>
<circle r="2.51823" transform="matrix(4.37114e-08 -1 -1 -4.37114e-08 426.96 39.05)" fill="#4E8FFF"/>
<circle r="2.51823" transform="matrix(4.37114e-08 -1 -1 -4.37114e-08 426.96 30.236)" fill="#4E8FFF"/>
<circle r="2.51823" transform="matrix(4.37114e-08 -1 -1 -4.37114e-08 426.96 21.4221)" fill="#4E8FFF"/>
<circle r="2.51823" transform="matrix(4.37114e-08 -1 -1 -4.37114e-08 426.96 12.6085)" fill="#4E8FFF"/>
<circle r="2.51823" transform="matrix(4.37114e-08 -1 -1 -4.37114e-08 426.96 3.79449)" fill="#4E8FFF"/>
<circle r="2.51823" transform="matrix(4.37114e-08 -1 -1 -4.37114e-08 409.333 65.4907)" fill="#4E8FFF"/>
<circle r="2.51823" transform="matrix(4.37114e-08 -1 -1 -4.37114e-08 409.333 56.6774)" fill="#4E8FFF"/>
<circle r="2.51823" transform="matrix(4.37114e-08 -1 -1 -4.37114e-08 409.333 47.8633)" fill="#4E8FFF"/>
<circle r="2.51823" transform="matrix(4.37114e-08 -1 -1 -4.37114e-08 409.333 39.05)" fill="#4E8FFF"/>
<circle r="2.51823" transform="matrix(4.37114e-08 -1 -1 -4.37114e-08 409.333 30.236)" fill="#4E8FFF"/>
<circle r="2.51823" transform="matrix(4.37114e-08 -1 -1 -4.37114e-08 409.333 21.4221)" fill="#4E8FFF"/>
<circle r="2.51823" transform="matrix(4.37114e-08 -1 -1 -4.37114e-08 409.333 12.6085)" fill="#4E8FFF"/>
<circle r="2.51823" transform="matrix(4.37114e-08 -1 -1 -4.37114e-08 409.333 3.79452)" fill="#4E8FFF"/>
<circle r="2.51823" transform="matrix(4.37114e-08 -1 -1 -4.37114e-08 559.167 69.8976)" fill="#4E8FFF"/>
<circle r="2.51823" transform="matrix(4.37114e-08 -1 -1 -4.37114e-08 559.167 61.084)" fill="#4E8FFF"/>
<circle r="2.51823" transform="matrix(4.37114e-08 -1 -1 -4.37114e-08 559.167 52.2702)" fill="#4E8FFF"/>
<circle r="2.51823" transform="matrix(4.37114e-08 -1 -1 -4.37114e-08 559.167 43.4564)" fill="#4E8FFF"/>
<circle r="2.51823" transform="matrix(4.37114e-08 -1 -1 -4.37114e-08 559.167 34.6426)" fill="#4E8FFF"/>
<circle r="2.51823" transform="matrix(4.37114e-08 -1 -1 -4.37114e-08 559.167 25.8289)" fill="#4E8FFF"/>
<circle r="2.51823" transform="matrix(4.37114e-08 -1 -1 -4.37114e-08 559.167 17.0151)" fill="#4E8FFF"/>
<circle r="2.51823" transform="matrix(4.37114e-08 -1 -1 -4.37114e-08 559.167 8.20126)" fill="#4E8FFF"/>
<circle r="2.51823" transform="matrix(4.37114e-08 -1 -1 -4.37114e-08 559.167 -0.612525)" fill="#4E8FFF"/>
<circle r="2.51823" transform="matrix(4.37114e-08 -1 -1 -4.37114e-08 541.539 69.8976)" fill="#4E8FFF"/>
<circle r="2.51823" transform="matrix(4.37114e-08 -1 -1 -4.37114e-08 541.539 61.084)" fill="#4E8FFF"/>
<circle r="2.51823" transform="matrix(4.37114e-08 -1 -1 -4.37114e-08 541.539 52.2702)" fill="#4E8FFF"/>
<circle r="2.51823" transform="matrix(4.37114e-08 -1 -1 -4.37114e-08 541.539 43.4562)" fill="#4E8FFF"/>
<circle r="2.51823" transform="matrix(4.37114e-08 -1 -1 -4.37114e-08 541.539 34.6426)" fill="#4E8FFF"/>
<circle r="2.51823" transform="matrix(4.37114e-08 -1 -1 -4.37114e-08 541.539 25.8289)" fill="#4E8FFF"/>
<circle r="2.51823" transform="matrix(4.37114e-08 -1 -1 -4.37114e-08 541.539 17.0151)" fill="#4E8FFF"/>
<circle r="2.51823" transform="matrix(4.37114e-08 -1 -1 -4.37114e-08 541.539 8.20126)" fill="#4E8FFF"/>
<circle r="2.51823" transform="matrix(4.37114e-08 -1 -1 -4.37114e-08 541.539 -0.612525)" fill="#4E8FFF"/>
<circle r="2.51823" transform="matrix(4.37114e-08 -1 -1 -4.37114e-08 523.912 69.8976)" fill="#4E8FFF"/>
<circle r="2.51823" transform="matrix(4.37114e-08 -1 -1 -4.37114e-08 523.912 61.084)" fill="#4E8FFF"/>
<circle r="2.51823" transform="matrix(4.37114e-08 -1 -1 -4.37114e-08 523.912 52.2702)" fill="#4E8FFF"/>
<circle r="2.51823" transform="matrix(4.37114e-08 -1 -1 -4.37114e-08 523.912 43.4562)" fill="#4E8FFF"/>
<circle r="2.51823" transform="matrix(4.37114e-08 -1 -1 -4.37114e-08 523.912 34.6426)" fill="#4E8FFF"/>
<circle r="2.51823" transform="matrix(4.37114e-08 -1 -1 -4.37114e-08 523.912 25.8289)" fill="#4E8FFF"/>
<circle r="2.51823" transform="matrix(4.37114e-08 -1 -1 -4.37114e-08 523.912 17.0151)" fill="#4E8FFF"/>
<circle r="2.51823" transform="matrix(4.37114e-08 -1 -1 -4.37114e-08 523.911 8.20126)" fill="#4E8FFF"/>
<circle r="2.51823" transform="matrix(4.37114e-08 -1 -1 -4.37114e-08 523.911 -0.612342)" fill="#4E8FFF"/>
<circle r="2.51823" transform="matrix(4.37114e-08 -1 -1 -4.37114e-08 506.284 69.8976)" fill="#4E8FFF"/>
<circle r="2.51823" transform="matrix(4.37114e-08 -1 -1 -4.37114e-08 594.422 69.8976)" fill="#4E8FFF"/>
<circle r="2.51823" transform="matrix(4.37114e-08 -1 -1 -4.37114e-08 506.284 61.084)" fill="#4E8FFF"/>
<circle r="2.51823" transform="matrix(4.37114e-08 -1 -1 -4.37114e-08 594.422 61.084)" fill="#4E8FFF"/>
<circle r="2.51823" transform="matrix(4.37114e-08 -1 -1 -4.37114e-08 506.284 52.2702)" fill="#4E8FFF"/>
<circle r="2.51823" transform="matrix(4.37114e-08 -1 -1 -4.37114e-08 594.422 52.2702)" fill="#4E8FFF"/>
<circle r="2.51823" transform="matrix(4.37114e-08 -1 -1 -4.37114e-08 506.284 43.4564)" fill="#4E8FFF"/>
<circle r="2.51823" transform="matrix(4.37114e-08 -1 -1 -4.37114e-08 594.422 43.4564)" fill="#4E8FFF"/>
<circle r="2.51823" transform="matrix(4.37114e-08 -1 -1 -4.37114e-08 506.284 34.6426)" fill="#4E8FFF"/>
<circle r="2.51823" transform="matrix(4.37114e-08 -1 -1 -4.37114e-08 594.422 34.6426)" fill="#4E8FFF"/>
<circle r="2.51823" transform="matrix(4.37114e-08 -1 -1 -4.37114e-08 506.284 25.8289)" fill="#4E8FFF"/>
<circle r="2.51823" transform="matrix(4.37114e-08 -1 -1 -4.37114e-08 594.422 25.8289)" fill="#4E8FFF"/>
<circle r="2.51823" transform="matrix(4.37114e-08 -1 -1 -4.37114e-08 506.284 17.0151)" fill="#4E8FFF"/>
<circle r="2.51823" transform="matrix(4.37114e-08 -1 -1 -4.37114e-08 594.422 17.0151)" fill="#4E8FFF"/>
<circle r="2.51823" transform="matrix(4.37114e-08 -1 -1 -4.37114e-08 506.284 8.20126)" fill="#4E8FFF"/>
<circle r="2.51823" transform="matrix(4.37114e-08 -1 -1 -4.37114e-08 594.422 8.20126)" fill="#4E8FFF"/>
<circle r="2.51823" transform="matrix(4.37114e-08 -1 -1 -4.37114e-08 506.284 -0.612342)" fill="#4E8FFF"/>
<circle r="2.51823" transform="matrix(4.37114e-08 -1 -1 -4.37114e-08 594.422 -0.612342)" fill="#4E8FFF"/>
<circle r="2.51823" transform="matrix(4.37114e-08 -1 -1 -4.37114e-08 488.657 69.8976)" fill="#4E8FFF"/>
<circle r="2.51823" transform="matrix(4.37114e-08 -1 -1 -4.37114e-08 576.794 69.8976)" fill="#4E8FFF"/>
<circle r="2.51823" transform="matrix(4.37114e-08 -1 -1 -4.37114e-08 488.657 61.084)" fill="#4E8FFF"/>
<circle r="2.51823" transform="matrix(4.37114e-08 -1 -1 -4.37114e-08 576.794 61.084)" fill="#4E8FFF"/>
<circle r="2.51823" transform="matrix(4.37114e-08 -1 -1 -4.37114e-08 488.657 52.2702)" fill="#4E8FFF"/>
<circle r="2.51823" transform="matrix(4.37114e-08 -1 -1 -4.37114e-08 576.794 52.2702)" fill="#4E8FFF"/>
<circle r="2.51823" transform="matrix(4.37114e-08 -1 -1 -4.37114e-08 488.657 43.4562)" fill="#4E8FFF"/>
<circle r="2.51823" transform="matrix(4.37114e-08 -1 -1 -4.37114e-08 576.794 43.4562)" fill="#4E8FFF"/>
<circle r="2.51823" transform="matrix(4.37114e-08 -1 -1 -4.37114e-08 488.657 34.6426)" fill="#4E8FFF"/>
<circle r="2.51823" transform="matrix(4.37114e-08 -1 -1 -4.37114e-08 576.794 34.6426)" fill="#4E8FFF"/>
<circle r="2.51823" transform="matrix(4.37114e-08 -1 -1 -4.37114e-08 488.657 25.8289)" fill="#4E8FFF"/>
<circle r="2.51823" transform="matrix(4.37114e-08 -1 -1 -4.37114e-08 576.794 25.8289)" fill="#4E8FFF"/>
<circle r="2.51823" transform="matrix(4.37114e-08 -1 -1 -4.37114e-08 488.657 17.0151)" fill="#4E8FFF"/>
<circle r="2.51823" transform="matrix(4.37114e-08 -1 -1 -4.37114e-08 576.794 17.0151)" fill="#4E8FFF"/>
<circle r="2.51823" transform="matrix(4.37114e-08 -1 -1 -4.37114e-08 488.657 8.20126)" fill="#4E8FFF"/>
<circle r="2.51823" transform="matrix(4.37114e-08 -1 -1 -4.37114e-08 576.794 8.20126)" fill="#4E8FFF"/>
<circle r="2.51823" transform="matrix(4.37114e-08 -1 -1 -4.37114e-08 488.657 -0.612342)" fill="#4E8FFF"/>
<circle r="2.51823" transform="matrix(4.37114e-08 -1 -1 -4.37114e-08 576.794 -0.612342)" fill="#4E8FFF"/>
<circle r="2.51823" transform="matrix(4.37114e-08 -1 -1 -4.37114e-08 532.725 65.4909)" fill="#4E8FFF"/>
<circle r="2.51823" transform="matrix(4.37114e-08 -1 -1 -4.37114e-08 532.725 56.6774)" fill="#4E8FFF"/>
<circle r="2.51823" transform="matrix(4.37114e-08 -1 -1 -4.37114e-08 532.725 47.8633)" fill="#4E8FFF"/>
<circle r="2.51823" transform="matrix(4.37114e-08 -1 -1 -4.37114e-08 532.725 39.05)" fill="#4E8FFF"/>
<circle r="2.51823" transform="matrix(4.37114e-08 -1 -1 -4.37114e-08 532.725 30.236)" fill="#4E8FFF"/>
<circle r="2.51823" transform="matrix(4.37114e-08 -1 -1 -4.37114e-08 532.725 21.4221)" fill="#4E8FFF"/>
<circle r="2.51823" transform="matrix(4.37114e-08 -1 -1 -4.37114e-08 532.725 12.6085)" fill="#4E8FFF"/>
<circle r="2.51823" transform="matrix(4.37114e-08 -1 -1 -4.37114e-08 532.725 3.79449)" fill="#4E8FFF"/>
<circle r="2.51823" transform="matrix(4.37114e-08 -1 -1 -4.37114e-08 550.353 65.4909)" fill="#4E8FFF"/>
<circle r="2.51823" transform="matrix(4.37114e-08 -1 -1 -4.37114e-08 550.353 56.6774)" fill="#4E8FFF"/>
<circle r="2.51823" transform="matrix(4.37114e-08 -1 -1 -4.37114e-08 550.353 47.8633)" fill="#4E8FFF"/>
<circle r="2.51823" transform="matrix(4.37114e-08 -1 -1 -4.37114e-08 550.353 39.05)" fill="#4E8FFF"/>
<circle r="2.51823" transform="matrix(4.37114e-08 -1 -1 -4.37114e-08 550.353 30.236)" fill="#4E8FFF"/>
<circle r="2.51823" transform="matrix(4.37114e-08 -1 -1 -4.37114e-08 550.353 21.4221)" fill="#4E8FFF"/>
<circle r="2.51823" transform="matrix(4.37114e-08 -1 -1 -4.37114e-08 550.353 12.6085)" fill="#4E8FFF"/>
<circle r="2.51823" transform="matrix(4.37114e-08 -1 -1 -4.37114e-08 550.353 3.79449)" fill="#4E8FFF"/>
<circle r="2.51823" transform="matrix(4.37114e-08 -1 -1 -4.37114e-08 515.098 65.4909)" fill="#4E8FFF"/>
<circle r="2.51823" transform="matrix(4.37114e-08 -1 -1 -4.37114e-08 515.098 56.6774)" fill="#4E8FFF"/>
<circle r="2.51823" transform="matrix(4.37114e-08 -1 -1 -4.37114e-08 515.098 47.8633)" fill="#4E8FFF"/>
<circle r="2.51823" transform="matrix(4.37114e-08 -1 -1 -4.37114e-08 515.098 39.05)" fill="#4E8FFF"/>
<circle r="2.51823" transform="matrix(4.37114e-08 -1 -1 -4.37114e-08 515.098 30.236)" fill="#4E8FFF"/>
<circle r="2.51823" transform="matrix(4.37114e-08 -1 -1 -4.37114e-08 515.098 21.4221)" fill="#4E8FFF"/>
<circle r="2.51823" transform="matrix(4.37114e-08 -1 -1 -4.37114e-08 515.098 12.6085)" fill="#4E8FFF"/>
<circle r="2.51823" transform="matrix(4.37114e-08 -1 -1 -4.37114e-08 515.098 3.79443)" fill="#4E8FFF"/>
<circle r="2.51823" transform="matrix(4.37114e-08 -1 -1 -4.37114e-08 497.47 65.4909)" fill="#4E8FFF"/>
<circle r="2.51823" transform="matrix(4.37114e-08 -1 -1 -4.37114e-08 585.609 65.4909)" fill="#4E8FFF"/>
<circle r="2.51823" transform="matrix(4.37114e-08 -1 -1 -4.37114e-08 497.47 56.6774)" fill="#4E8FFF"/>
<circle r="2.51823" transform="matrix(4.37114e-08 -1 -1 -4.37114e-08 585.609 56.6774)" fill="#4E8FFF"/>
<circle r="2.51823" transform="matrix(4.37114e-08 -1 -1 -4.37114e-08 497.47 47.8633)" fill="#4E8FFF"/>
<circle r="2.51823" transform="matrix(4.37114e-08 -1 -1 -4.37114e-08 585.609 47.8633)" fill="#4E8FFF"/>
<circle r="2.51823" transform="matrix(4.37114e-08 -1 -1 -4.37114e-08 497.47 39.05)" fill="#4E8FFF"/>
<circle r="2.51823" transform="matrix(4.37114e-08 -1 -1 -4.37114e-08 585.609 39.05)" fill="#4E8FFF"/>
<circle r="2.51823" transform="matrix(4.37114e-08 -1 -1 -4.37114e-08 497.47 30.236)" fill="#4E8FFF"/>
<circle r="2.51823" transform="matrix(4.37114e-08 -1 -1 -4.37114e-08 585.608 30.236)" fill="#4E8FFF"/>
<circle r="2.51823" transform="matrix(4.37114e-08 -1 -1 -4.37114e-08 497.47 21.4221)" fill="#4E8FFF"/>
<circle r="2.51823" transform="matrix(4.37114e-08 -1 -1 -4.37114e-08 585.608 21.4221)" fill="#4E8FFF"/>
<circle r="2.51823" transform="matrix(4.37114e-08 -1 -1 -4.37114e-08 497.47 12.6085)" fill="#4E8FFF"/>
<circle r="2.51823" transform="matrix(4.37114e-08 -1 -1 -4.37114e-08 585.608 12.6085)" fill="#4E8FFF"/>
<circle r="2.51823" transform="matrix(4.37114e-08 -1 -1 -4.37114e-08 497.47 3.79452)" fill="#4E8FFF"/>
<circle r="2.51823" transform="matrix(4.37114e-08 -1 -1 -4.37114e-08 585.608 3.79443)" fill="#4E8FFF"/>
<circle r="2.51823" transform="matrix(4.37114e-08 -1 -1 -4.37114e-08 479.843 65.4909)" fill="#4E8FFF"/>
<circle r="2.51823" transform="matrix(4.37114e-08 -1 -1 -4.37114e-08 567.98 65.4909)" fill="#4E8FFF"/>
<circle r="2.51823" transform="matrix(4.37114e-08 -1 -1 -4.37114e-08 479.843 56.6774)" fill="#4E8FFF"/>
<circle r="2.51823" transform="matrix(4.37114e-08 -1 -1 -4.37114e-08 567.98 56.6774)" fill="#4E8FFF"/>
<circle r="2.51823" transform="matrix(4.37114e-08 -1 -1 -4.37114e-08 479.843 47.8633)" fill="#4E8FFF"/>
<circle r="2.51823" transform="matrix(4.37114e-08 -1 -1 -4.37114e-08 567.98 47.8633)" fill="#4E8FFF"/>
<circle r="2.51823" transform="matrix(4.37114e-08 -1 -1 -4.37114e-08 479.843 39.05)" fill="#4E8FFF"/>
<circle r="2.51823" transform="matrix(4.37114e-08 -1 -1 -4.37114e-08 567.98 39.05)" fill="#4E8FFF"/>
<circle r="2.51823" transform="matrix(4.37114e-08 -1 -1 -4.37114e-08 479.843 30.236)" fill="#4E8FFF"/>
<circle r="2.51823" transform="matrix(4.37114e-08 -1 -1 -4.37114e-08 567.98 30.236)" fill="#4E8FFF"/>
<circle r="2.51823" transform="matrix(4.37114e-08 -1 -1 -4.37114e-08 479.843 21.4221)" fill="#4E8FFF"/>
<circle r="2.51823" transform="matrix(4.37114e-08 -1 -1 -4.37114e-08 567.98 21.4221)" fill="#4E8FFF"/>
<circle r="2.51823" transform="matrix(4.37114e-08 -1 -1 -4.37114e-08 479.843 12.6085)" fill="#4E8FFF"/>
<circle r="2.51823" transform="matrix(4.37114e-08 -1 -1 -4.37114e-08 567.98 12.6085)" fill="#4E8FFF"/>
<circle r="2.51823" transform="matrix(4.37114e-08 -1 -1 -4.37114e-08 479.843 3.79449)" fill="#4E8FFF"/>
<circle r="2.51823" transform="matrix(4.37114e-08 -1 -1 -4.37114e-08 567.98 3.7944)" fill="#4E8FFF"/>
</g>
<path fill-rule="evenodd" clip-rule="evenodd" d="M101.885 89.4873L97.3355 89.4873L97.3355 94.1717L96.5145 94.1717L96.5145 89.4873L91.9647 89.4873L91.9647 88.642L96.5145 88.642L96.5145 83.9578L97.3355 83.9578L97.3355 88.642L101.885 88.642L101.885 89.4873Z" fill="white"/>
<path fill-rule="evenodd" clip-rule="evenodd" d="M75.9028 89.4873L71.3531 89.4873L71.3531 94.1717L70.532 94.1717L70.532 89.4873L65.9823 89.4873L65.9823 88.642L70.532 88.642L70.532 83.9578L71.3531 83.9578L71.3531 88.642L75.9028 88.642L75.9028 89.4873Z" fill="white"/>
<path fill-rule="evenodd" clip-rule="evenodd" d="M75.9028 62.5086L71.3531 62.5086L71.3531 67.193L70.532 67.193L70.532 62.5086L65.9823 62.5086L65.9823 61.6633L70.532 61.6633L70.532 56.9791L71.3531 56.9791L71.3531 61.6633L75.9028 61.6633L75.9028 62.5086Z" fill="white"/>
<path fill-rule="evenodd" clip-rule="evenodd" d="M101.885 62.5089L97.3355 62.5089L97.3355 67.1932L96.5145 67.1932L96.5145 62.5089L91.9647 62.5089L91.9647 61.6635L96.5145 61.6635L96.5145 56.9793L97.3355 56.9793L97.3355 61.6635L101.885 61.6635L101.885 62.5089Z" fill="white"/>
<path fill-rule="evenodd" clip-rule="evenodd" d="M131.628 36.6216L127.079 36.6216L127.079 41.306L126.258 41.306L126.258 36.6216L121.708 36.6216L121.708 35.7763L126.258 35.7763L126.258 31.0921L127.079 31.0921L127.079 35.7763L131.628 35.7763L131.628 36.6216Z" fill="white"/>
<path fill-rule="evenodd" clip-rule="evenodd" d="M130.568 62.5086L126.018 62.5086L126.018 67.193L125.197 67.193L125.197 62.5086L120.647 62.5086L120.647 61.6633L125.197 61.6633L125.197 56.9791L126.018 56.9791L126.018 61.6633L130.568 61.6633L130.568 62.5086Z" fill="white"/>
<path fill-rule="evenodd" clip-rule="evenodd" d="M101.885 35.5296L97.3355 35.5296L97.3355 40.214L96.5145 40.214L96.5145 35.5296L91.9647 35.5296L91.9647 34.6843L96.5145 34.6843L96.5145 30.0001L97.3355 30.0001L97.3355 34.6843L101.885 34.6843L101.885 35.5296Z" fill="white"/>
<path fill-rule="evenodd" clip-rule="evenodd" d="M75.9028 116.238L71.3531 116.238L71.3531 120.922L70.532 120.922L70.532 116.238L65.9823 116.238L65.9823 115.392L70.532 115.392L70.532 110.708L71.3531 110.708L71.3531 115.392L75.9028 115.392L75.9028 116.238Z" fill="white"/>
<path fill-rule="evenodd" clip-rule="evenodd" d="M49.9207 116.238L45.3709 116.238L45.3709 120.922L44.5499 120.922L44.5499 116.238L40.0001 116.238L40.0001 115.392L44.5499 115.392L44.5499 110.708L45.3709 110.708L45.3709 115.392L49.9207 115.392L49.9207 116.238Z" fill="white"/>
<path fill-rule="evenodd" clip-rule="evenodd" d="M49.9207 142.989L45.3709 142.989L45.3709 147.673L44.5499 147.673L44.5499 142.989L40.0001 142.989L40.0001 142.144L44.5499 142.144L44.5499 137.459L45.3709 137.459L45.3709 142.144L49.9207 142.144L49.9207 142.989Z" fill="white"/>
<path fill-rule="evenodd" clip-rule="evenodd" d="M49.9207 89.4873L45.3709 89.4873L45.3709 94.1717L44.5499 94.1717L44.5499 89.4873L40.0001 89.4873L40.0001 88.642L44.5499 88.642L44.5499 83.9578L45.3709 83.9578L45.3709 88.642L49.9207 88.642L49.9207 89.4873Z" fill="white"/>
</g>
<defs>
<linearGradient id="paint0_linear_224_6301" x1="491.75" y1="380.895" x2="100.686" y2="2.0772" gradientUnits="userSpaceOnUse">
<stop stop-color="#2075FF"/>
<stop offset="1" stop-color="#164CC7"/>
</linearGradient>
<linearGradient id="paint1_linear_224_6301" x1="151.561" y1="336.003" x2="-4.6608" y2="398.062" gradientUnits="userSpaceOnUse">
<stop stop-color="#E9366E"/>
<stop offset="1" stop-color="#F29A0B"/>
</linearGradient>
<linearGradient id="paint2_linear_224_6301" x1="663.629" y1="217.257" x2="717.589" y2="178.106" gradientUnits="userSpaceOnUse">
<stop stop-color="white"/>
<stop offset="1" stop-color="#F29A0B"/>
</linearGradient>
<linearGradient id="paint3_linear_224_6301" x1="663.629" y1="227.29" x2="717.598" y2="188.141" gradientUnits="userSpaceOnUse">
<stop stop-color="white"/>
<stop offset="1" stop-color="#F29A0B"/>
</linearGradient>
<linearGradient id="paint4_linear_224_6301" x1="663.629" y1="237.322" x2="717.598" y2="198.173" gradientUnits="userSpaceOnUse">
<stop stop-color="white"/>
<stop offset="1" stop-color="#F29A0B"/>
</linearGradient>
<linearGradient id="paint5_linear_224_6301" x1="663.629" y1="247.345" x2="717.589" y2="208.194" gradientUnits="userSpaceOnUse">
<stop stop-color="white"/>
<stop offset="1" stop-color="#F29A0B"/>
</linearGradient>
<linearGradient id="paint6_linear_224_6301" x1="663.629" y1="257.378" x2="717.598" y2="218.229" gradientUnits="userSpaceOnUse">
<stop stop-color="white"/>
<stop offset="1" stop-color="#F29A0B"/>
</linearGradient>
<linearGradient id="paint7_linear_224_6301" x1="663.629" y1="267.41" x2="717.598" y2="228.261" gradientUnits="userSpaceOnUse">
<stop stop-color="white"/>
<stop offset="1" stop-color="#F29A0B"/>
</linearGradient>
<linearGradient id="paint8_linear_224_6301" x1="663.629" y1="277.431" x2="717.589" y2="238.279" gradientUnits="userSpaceOnUse">
<stop stop-color="white"/>
<stop offset="1" stop-color="#F29A0B"/>
</linearGradient>
<linearGradient id="paint9_linear_224_6301" x1="663.629" y1="287.453" x2="717.589" y2="248.301" gradientUnits="userSpaceOnUse">
<stop stop-color="white"/>
<stop offset="1" stop-color="#F29A0B"/>
</linearGradient>
<linearGradient id="paint10_linear_224_6301" x1="663.629" y1="297.486" x2="717.598" y2="258.337" gradientUnits="userSpaceOnUse">
<stop stop-color="white"/>
<stop offset="1" stop-color="#F29A0B"/>
</linearGradient>
<linearGradient id="paint11_linear_224_6301" x1="663.629" y1="307.518" x2="717.598" y2="268.369" gradientUnits="userSpaceOnUse">
<stop stop-color="white"/>
<stop offset="1" stop-color="#F29A0B"/>
</linearGradient>
</defs>
</svg>
