<svg width="700" height="483" viewBox="0 0 700 483" fill="none" xmlns="http://www.w3.org/2000/svg">
<mask id="mask0_240_4130" style="mask-type:alpha" maskUnits="userSpaceOnUse" x="0" y="0" width="700" height="484">
<rect y="0.000244141" width="700" height="483" fill="#D9D9D9"/>
</mask>
<g mask="url(#mask0_240_4130)">
<path fill-rule="evenodd" clip-rule="evenodd" d="M82.0539 404.958C69.3712 359.609 22.3138 333.14 -23.0741 345.877C-68.4619 358.614 -94.9427 405.72 -82.2601 451.069C-69.5774 496.418 -22.52 522.887 22.8679 510.15C68.2557 497.413 94.7365 450.307 82.0539 404.958ZM127.977 392.071C108.195 321.34 34.8161 280.092 -35.9204 299.943C-106.657 319.793 -147.964 393.224 -128.183 463.956C-108.401 534.687 -35.0223 575.934 35.7141 556.084C106.451 536.234 147.758 462.803 127.977 392.071Z" fill="url(#paint0_linear_240_4130)"/>
<path d="M34 414.877V427.001" stroke="white" stroke-width="2" stroke-linecap="round"/>
<path d="M34 383V395.124" stroke="white" stroke-width="2" stroke-linecap="round"/>
<path d="M24.1235 405L12.0001 405" stroke="white" stroke-width="2" stroke-linecap="round"/>
<path d="M56 405L43.8765 405" stroke="white" stroke-width="2" stroke-linecap="round"/>
<path d="M46.3599 392.49L41.0903 397.759" stroke="white" stroke-width="2" stroke-linecap="round"/>
<path d="M26.9097 411.94L21.6401 417.21" stroke="white" stroke-width="2" stroke-linecap="round"/>
<path d="M46.3599 417.21L41.0903 411.94" stroke="white" stroke-width="2" stroke-linecap="round"/>
<path d="M26.9097 397.759L21.6401 392.49" stroke="white" stroke-width="2" stroke-linecap="round"/>
<path fill-rule="evenodd" clip-rule="evenodd" d="M642.084 219.739L717.063 163.443L715.98 162L641 218.296L642.084 219.739Z" fill="url(#paint1_linear_240_4130)"/>
<path fill-rule="evenodd" clip-rule="evenodd" d="M642.084 229.772L717.063 173.463L715.979 172.02L641 228.329L642.084 229.772Z" fill="url(#paint2_linear_240_4130)"/>
<path fill-rule="evenodd" clip-rule="evenodd" d="M642.084 239.804L717.063 183.496L715.979 182.053L641 238.361L642.084 239.804Z" fill="url(#paint3_linear_240_4130)"/>
<path fill-rule="evenodd" clip-rule="evenodd" d="M642.083 249.827L717.063 193.531L715.979 192.088L641 248.384L642.083 249.827Z" fill="url(#paint4_linear_240_4130)"/>
<path fill-rule="evenodd" clip-rule="evenodd" d="M642.084 259.86L717.063 203.551L715.979 202.108L641 258.417L642.084 259.86Z" fill="url(#paint5_linear_240_4130)"/>
<path fill-rule="evenodd" clip-rule="evenodd" d="M642.084 269.892L717.063 213.583L715.979 212.14L641 268.449L642.084 269.892Z" fill="url(#paint6_linear_240_4130)"/>
<path fill-rule="evenodd" clip-rule="evenodd" d="M642.083 279.912L717.063 223.616L715.979 222.173L641 278.469L642.083 279.912Z" fill="url(#paint7_linear_240_4130)"/>
<path fill-rule="evenodd" clip-rule="evenodd" d="M642.083 289.935L717.063 233.639L715.979 232.196L641 288.492L642.083 289.935Z" fill="url(#paint8_linear_240_4130)"/>
<path fill-rule="evenodd" clip-rule="evenodd" d="M642.084 299.968L717.063 243.659L715.979 242.216L641 298.525L642.084 299.968Z" fill="url(#paint9_linear_240_4130)"/>
<path fill-rule="evenodd" clip-rule="evenodd" d="M642.084 310L717.063 253.691L715.979 252.249L641 308.557L642.084 310Z" fill="url(#paint10_linear_240_4130)"/>
<path opacity="0.5" fill-rule="evenodd" clip-rule="evenodd" d="M614.157 408.244L629.081 408.244L629.081 423.168L614.157 423.168L614.157 408.244ZM639.03 398.295L639.03 433.117L604.208 433.117L604.208 398.295L639.03 398.295Z" fill="#FF733D"/>
<g opacity="0.33">
<circle r="2.51823" transform="matrix(4.37114e-08 -1 -1 -4.37114e-08 471.028 69.8977)" fill="#E9376F"/>
<circle r="2.51823" transform="matrix(4.37114e-08 -1 -1 -4.37114e-08 471.028 61.0841)" fill="#E9376F"/>
<circle r="2.51823" transform="matrix(4.37114e-08 -1 -1 -4.37114e-08 471.028 52.2702)" fill="#E9376F"/>
<circle r="2.51823" transform="matrix(4.37114e-08 -1 -1 -4.37114e-08 471.028 43.4564)" fill="#E9376F"/>
<circle r="2.51823" transform="matrix(4.37114e-08 -1 -1 -4.37114e-08 471.028 34.6427)" fill="#E9376F"/>
<circle r="2.51823" transform="matrix(4.37114e-08 -1 -1 -4.37114e-08 471.028 25.8289)" fill="#E9376F"/>
<circle r="2.51823" transform="matrix(4.37114e-08 -1 -1 -4.37114e-08 471.028 17.0152)" fill="#E9376F"/>
<circle r="2.51823" transform="matrix(4.37114e-08 -1 -1 -4.37114e-08 471.028 8.20126)" fill="#E9376F"/>
<circle r="2.51823" transform="matrix(4.37114e-08 -1 -1 -4.37114e-08 471.028 -0.612342)" fill="#E9376F"/>
<circle r="2.51823" transform="matrix(4.37114e-08 -1 -1 -4.37114e-08 453.402 69.8977)" fill="#E9376F"/>
<circle r="2.51823" transform="matrix(4.37114e-08 -1 -1 -4.37114e-08 453.402 61.0841)" fill="#E9376F"/>
<circle r="2.51823" transform="matrix(4.37114e-08 -1 -1 -4.37114e-08 453.402 52.2702)" fill="#E9376F"/>
<circle r="2.51823" transform="matrix(4.37114e-08 -1 -1 -4.37114e-08 453.402 43.4563)" fill="#E9376F"/>
<circle r="2.51823" transform="matrix(4.37114e-08 -1 -1 -4.37114e-08 453.402 34.6427)" fill="#E9376F"/>
<circle r="2.51823" transform="matrix(4.37114e-08 -1 -1 -4.37114e-08 453.402 25.8289)" fill="#E9376F"/>
<circle r="2.51823" transform="matrix(4.37114e-08 -1 -1 -4.37114e-08 453.402 17.0152)" fill="#E9376F"/>
<circle r="2.51823" transform="matrix(4.37114e-08 -1 -1 -4.37114e-08 453.402 8.20138)" fill="#E9376F"/>
<circle r="2.51823" transform="matrix(4.37114e-08 -1 -1 -4.37114e-08 453.402 -0.612342)" fill="#E9376F"/>
<circle r="2.51823" transform="matrix(4.37114e-08 -1 -1 -4.37114e-08 435.773 69.8977)" fill="#E9376F"/>
<circle r="2.51823" transform="matrix(4.37114e-08 -1 -1 -4.37114e-08 435.773 61.0841)" fill="#E9376F"/>
<circle r="2.51823" transform="matrix(4.37114e-08 -1 -1 -4.37114e-08 435.773 52.2702)" fill="#E9376F"/>
<circle r="2.51823" transform="matrix(4.37114e-08 -1 -1 -4.37114e-08 435.773 43.4564)" fill="#E9376F"/>
<circle r="2.51823" transform="matrix(4.37114e-08 -1 -1 -4.37114e-08 435.773 34.6427)" fill="#E9376F"/>
<circle r="2.51823" transform="matrix(4.37114e-08 -1 -1 -4.37114e-08 435.773 25.8289)" fill="#E9376F"/>
<circle r="2.51823" transform="matrix(4.37114e-08 -1 -1 -4.37114e-08 435.773 17.0152)" fill="#E9376F"/>
<circle r="2.51823" transform="matrix(4.37114e-08 -1 -1 -4.37114e-08 435.773 8.20126)" fill="#E9376F"/>
<circle r="2.51823" transform="matrix(4.37114e-08 -1 -1 -4.37114e-08 435.773 -0.61222)" fill="#E9376F"/>
<circle r="2.51823" transform="matrix(4.37114e-08 -1 -1 -4.37114e-08 418.146 69.8977)" fill="#E9376F"/>
<circle r="2.51823" transform="matrix(4.37114e-08 -1 -1 -4.37114e-08 418.146 61.0841)" fill="#E9376F"/>
<circle r="2.51823" transform="matrix(4.37114e-08 -1 -1 -4.37114e-08 418.146 52.2703)" fill="#E9376F"/>
<circle r="2.51823" transform="matrix(4.37114e-08 -1 -1 -4.37114e-08 418.146 43.4563)" fill="#E9376F"/>
<circle r="2.51823" transform="matrix(4.37114e-08 -1 -1 -4.37114e-08 418.146 34.6427)" fill="#E9376F"/>
<circle r="2.51823" transform="matrix(4.37114e-08 -1 -1 -4.37114e-08 418.146 25.8289)" fill="#E9376F"/>
<circle r="2.51823" transform="matrix(4.37114e-08 -1 -1 -4.37114e-08 418.146 17.0152)" fill="#E9376F"/>
<circle r="2.51823" transform="matrix(4.37114e-08 -1 -1 -4.37114e-08 418.146 8.20126)" fill="#E9376F"/>
<circle r="2.51823" transform="matrix(4.37114e-08 -1 -1 -4.37114e-08 418.146 -0.61222)" fill="#E9376F"/>
<circle r="2.51823" transform="matrix(4.37114e-08 -1 -1 -4.37114e-08 400.518 69.8977)" fill="#E9376F"/>
<circle r="2.51823" transform="matrix(4.37114e-08 -1 -1 -4.37114e-08 400.518 61.0841)" fill="#E9376F"/>
<circle r="2.51823" transform="matrix(4.37114e-08 -1 -1 -4.37114e-08 400.518 52.2702)" fill="#E9376F"/>
<circle r="2.51823" transform="matrix(4.37114e-08 -1 -1 -4.37114e-08 400.518 43.4564)" fill="#E9376F"/>
<circle r="2.51823" transform="matrix(4.37114e-08 -1 -1 -4.37114e-08 400.518 34.6427)" fill="#E9376F"/>
<circle r="2.51823" transform="matrix(4.37114e-08 -1 -1 -4.37114e-08 400.518 25.8289)" fill="#E9376F"/>
<circle r="2.51823" transform="matrix(4.37114e-08 -1 -1 -4.37114e-08 400.518 17.0152)" fill="#E9376F"/>
<circle r="2.51823" transform="matrix(4.37114e-08 -1 -1 -4.37114e-08 400.518 8.20138)" fill="#E9376F"/>
<circle r="2.51823" transform="matrix(4.37114e-08 -1 -1 -4.37114e-08 400.518 -0.61222)" fill="#E9376F"/>
<circle r="2.51823" transform="matrix(4.37114e-08 -1 -1 -4.37114e-08 444.588 65.4908)" fill="#E9376F"/>
<circle r="2.51823" transform="matrix(4.37114e-08 -1 -1 -4.37114e-08 444.588 56.6775)" fill="#E9376F"/>
<circle r="2.51823" transform="matrix(4.37114e-08 -1 -1 -4.37114e-08 444.588 47.8634)" fill="#E9376F"/>
<circle r="2.51823" transform="matrix(4.37114e-08 -1 -1 -4.37114e-08 444.588 39.05)" fill="#E9376F"/>
<circle r="2.51823" transform="matrix(4.37114e-08 -1 -1 -4.37114e-08 444.588 30.236)" fill="#E9376F"/>
<circle r="2.51823" transform="matrix(4.37114e-08 -1 -1 -4.37114e-08 444.588 21.4222)" fill="#E9376F"/>
<circle r="2.51823" transform="matrix(4.37114e-08 -1 -1 -4.37114e-08 444.588 12.6086)" fill="#E9376F"/>
<circle r="2.51823" transform="matrix(4.37114e-08 -1 -1 -4.37114e-08 444.588 3.79452)" fill="#E9376F"/>
<circle r="2.51823" transform="matrix(4.37114e-08 -1 -1 -4.37114e-08 462.215 65.4911)" fill="#E9376F"/>
<circle r="2.51823" transform="matrix(4.37114e-08 -1 -1 -4.37114e-08 462.215 56.6775)" fill="#E9376F"/>
<circle r="2.51823" transform="matrix(4.37114e-08 -1 -1 -4.37114e-08 462.215 47.8634)" fill="#E9376F"/>
<circle r="2.51823" transform="matrix(4.37114e-08 -1 -1 -4.37114e-08 462.215 39.05)" fill="#E9376F"/>
<circle r="2.51823" transform="matrix(4.37114e-08 -1 -1 -4.37114e-08 462.215 30.236)" fill="#E9376F"/>
<circle r="2.51823" transform="matrix(4.37114e-08 -1 -1 -4.37114e-08 462.215 21.4222)" fill="#E9376F"/>
<circle r="2.51823" transform="matrix(4.37114e-08 -1 -1 -4.37114e-08 462.215 12.6086)" fill="#E9376F"/>
<circle r="2.51823" transform="matrix(4.37114e-08 -1 -1 -4.37114e-08 462.215 3.79452)" fill="#E9376F"/>
<circle r="2.51823" transform="matrix(4.37114e-08 -1 -1 -4.37114e-08 426.96 65.4908)" fill="#E9376F"/>
<circle r="2.51823" transform="matrix(4.37114e-08 -1 -1 -4.37114e-08 426.96 56.6775)" fill="#E9376F"/>
<circle r="2.51823" transform="matrix(4.37114e-08 -1 -1 -4.37114e-08 426.96 47.8634)" fill="#E9376F"/>
<circle r="2.51823" transform="matrix(4.37114e-08 -1 -1 -4.37114e-08 426.96 39.05)" fill="#E9376F"/>
<circle r="2.51823" transform="matrix(4.37114e-08 -1 -1 -4.37114e-08 426.96 30.236)" fill="#E9376F"/>
<circle r="2.51823" transform="matrix(4.37114e-08 -1 -1 -4.37114e-08 426.96 21.4222)" fill="#E9376F"/>
<circle r="2.51823" transform="matrix(4.37114e-08 -1 -1 -4.37114e-08 426.96 12.6086)" fill="#E9376F"/>
<circle r="2.51823" transform="matrix(4.37114e-08 -1 -1 -4.37114e-08 426.96 3.79452)" fill="#E9376F"/>
<circle r="2.51823" transform="matrix(4.37114e-08 -1 -1 -4.37114e-08 409.333 65.4908)" fill="#E9376F"/>
<circle r="2.51823" transform="matrix(4.37114e-08 -1 -1 -4.37114e-08 409.333 56.6775)" fill="#E9376F"/>
<circle r="2.51823" transform="matrix(4.37114e-08 -1 -1 -4.37114e-08 409.333 47.8634)" fill="#E9376F"/>
<circle r="2.51823" transform="matrix(4.37114e-08 -1 -1 -4.37114e-08 409.333 39.05)" fill="#E9376F"/>
<circle r="2.51823" transform="matrix(4.37114e-08 -1 -1 -4.37114e-08 409.333 30.236)" fill="#E9376F"/>
<circle r="2.51823" transform="matrix(4.37114e-08 -1 -1 -4.37114e-08 409.333 21.4222)" fill="#E9376F"/>
<circle r="2.51823" transform="matrix(4.37114e-08 -1 -1 -4.37114e-08 409.333 12.6086)" fill="#E9376F"/>
<circle r="2.51823" transform="matrix(4.37114e-08 -1 -1 -4.37114e-08 409.333 3.79452)" fill="#E9376F"/>
<circle r="2.51823" transform="matrix(4.37114e-08 -1 -1 -4.37114e-08 559.167 69.8977)" fill="#E9376F"/>
<circle r="2.51823" transform="matrix(4.37114e-08 -1 -1 -4.37114e-08 559.167 61.0841)" fill="#E9376F"/>
<circle r="2.51823" transform="matrix(4.37114e-08 -1 -1 -4.37114e-08 559.167 52.2702)" fill="#E9376F"/>
<circle r="2.51823" transform="matrix(4.37114e-08 -1 -1 -4.37114e-08 559.167 43.4564)" fill="#E9376F"/>
<circle r="2.51823" transform="matrix(4.37114e-08 -1 -1 -4.37114e-08 559.167 34.6427)" fill="#E9376F"/>
<circle r="2.51823" transform="matrix(4.37114e-08 -1 -1 -4.37114e-08 559.167 25.8289)" fill="#E9376F"/>
<circle r="2.51823" transform="matrix(4.37114e-08 -1 -1 -4.37114e-08 559.167 17.0152)" fill="#E9376F"/>
<circle r="2.51823" transform="matrix(4.37114e-08 -1 -1 -4.37114e-08 559.167 8.20126)" fill="#E9376F"/>
<circle r="2.51823" transform="matrix(4.37114e-08 -1 -1 -4.37114e-08 559.167 -0.612464)" fill="#E9376F"/>
<circle r="2.51823" transform="matrix(4.37114e-08 -1 -1 -4.37114e-08 541.539 69.8977)" fill="#E9376F"/>
<circle r="2.51823" transform="matrix(4.37114e-08 -1 -1 -4.37114e-08 541.539 61.0841)" fill="#E9376F"/>
<circle r="2.51823" transform="matrix(4.37114e-08 -1 -1 -4.37114e-08 541.539 52.2702)" fill="#E9376F"/>
<circle r="2.51823" transform="matrix(4.37114e-08 -1 -1 -4.37114e-08 541.539 43.4563)" fill="#E9376F"/>
<circle r="2.51823" transform="matrix(4.37114e-08 -1 -1 -4.37114e-08 541.539 34.6427)" fill="#E9376F"/>
<circle r="2.51823" transform="matrix(4.37114e-08 -1 -1 -4.37114e-08 541.539 25.8289)" fill="#E9376F"/>
<circle r="2.51823" transform="matrix(4.37114e-08 -1 -1 -4.37114e-08 541.539 17.0152)" fill="#E9376F"/>
<circle r="2.51823" transform="matrix(4.37114e-08 -1 -1 -4.37114e-08 541.539 8.20138)" fill="#E9376F"/>
<circle r="2.51823" transform="matrix(4.37114e-08 -1 -1 -4.37114e-08 541.539 -0.612464)" fill="#E9376F"/>
<circle r="2.51823" transform="matrix(4.37114e-08 -1 -1 -4.37114e-08 523.912 69.8977)" fill="#E9376F"/>
<circle r="2.51823" transform="matrix(4.37114e-08 -1 -1 -4.37114e-08 523.912 61.0841)" fill="#E9376F"/>
<circle r="2.51823" transform="matrix(4.37114e-08 -1 -1 -4.37114e-08 523.912 52.2702)" fill="#E9376F"/>
<circle r="2.51823" transform="matrix(4.37114e-08 -1 -1 -4.37114e-08 523.912 43.4563)" fill="#E9376F"/>
<circle r="2.51823" transform="matrix(4.37114e-08 -1 -1 -4.37114e-08 523.912 34.6427)" fill="#E9376F"/>
<circle r="2.51823" transform="matrix(4.37114e-08 -1 -1 -4.37114e-08 523.912 25.8289)" fill="#E9376F"/>
<circle r="2.51823" transform="matrix(4.37114e-08 -1 -1 -4.37114e-08 523.912 17.0152)" fill="#E9376F"/>
<circle r="2.51823" transform="matrix(4.37114e-08 -1 -1 -4.37114e-08 523.912 8.20126)" fill="#E9376F"/>
<circle r="2.51823" transform="matrix(4.37114e-08 -1 -1 -4.37114e-08 523.912 -0.61222)" fill="#E9376F"/>
<circle r="2.51823" transform="matrix(4.37114e-08 -1 -1 -4.37114e-08 506.284 69.8977)" fill="#E9376F"/>
<circle r="2.51823" transform="matrix(4.37114e-08 -1 -1 -4.37114e-08 594.422 69.8977)" fill="#E9376F"/>
<circle r="2.51823" transform="matrix(4.37114e-08 -1 -1 -4.37114e-08 506.284 61.0841)" fill="#E9376F"/>
<circle r="2.51823" transform="matrix(4.37114e-08 -1 -1 -4.37114e-08 594.422 61.0841)" fill="#E9376F"/>
<circle r="2.51823" transform="matrix(4.37114e-08 -1 -1 -4.37114e-08 506.284 52.2702)" fill="#E9376F"/>
<circle r="2.51823" transform="matrix(4.37114e-08 -1 -1 -4.37114e-08 594.422 52.2702)" fill="#E9376F"/>
<circle r="2.51823" transform="matrix(4.37114e-08 -1 -1 -4.37114e-08 506.284 43.4564)" fill="#E9376F"/>
<circle r="2.51823" transform="matrix(4.37114e-08 -1 -1 -4.37114e-08 594.422 43.4564)" fill="#E9376F"/>
<circle r="2.51823" transform="matrix(4.37114e-08 -1 -1 -4.37114e-08 506.284 34.6427)" fill="#E9376F"/>
<circle r="2.51823" transform="matrix(4.37114e-08 -1 -1 -4.37114e-08 594.422 34.6427)" fill="#E9376F"/>
<circle r="2.51823" transform="matrix(4.37114e-08 -1 -1 -4.37114e-08 506.284 25.8289)" fill="#E9376F"/>
<circle r="2.51823" transform="matrix(4.37114e-08 -1 -1 -4.37114e-08 594.422 25.8289)" fill="#E9376F"/>
<circle r="2.51823" transform="matrix(4.37114e-08 -1 -1 -4.37114e-08 506.284 17.0152)" fill="#E9376F"/>
<circle r="2.51823" transform="matrix(4.37114e-08 -1 -1 -4.37114e-08 594.422 17.0152)" fill="#E9376F"/>
<circle r="2.51823" transform="matrix(4.37114e-08 -1 -1 -4.37114e-08 506.284 8.20126)" fill="#E9376F"/>
<circle r="2.51823" transform="matrix(4.37114e-08 -1 -1 -4.37114e-08 594.422 8.20126)" fill="#E9376F"/>
<circle r="2.51823" transform="matrix(4.37114e-08 -1 -1 -4.37114e-08 506.284 -0.61222)" fill="#E9376F"/>
<circle r="2.51823" transform="matrix(4.37114e-08 -1 -1 -4.37114e-08 594.422 -0.61222)" fill="#E9376F"/>
<circle r="2.51823" transform="matrix(4.37114e-08 -1 -1 -4.37114e-08 488.657 69.8977)" fill="#E9376F"/>
<circle r="2.51823" transform="matrix(4.37114e-08 -1 -1 -4.37114e-08 576.794 69.8977)" fill="#E9376F"/>
<circle r="2.51823" transform="matrix(4.37114e-08 -1 -1 -4.37114e-08 488.657 61.0841)" fill="#E9376F"/>
<circle r="2.51823" transform="matrix(4.37114e-08 -1 -1 -4.37114e-08 576.794 61.0841)" fill="#E9376F"/>
<circle r="2.51823" transform="matrix(4.37114e-08 -1 -1 -4.37114e-08 488.657 52.2702)" fill="#E9376F"/>
<circle r="2.51823" transform="matrix(4.37114e-08 -1 -1 -4.37114e-08 576.794 52.2702)" fill="#E9376F"/>
<circle r="2.51823" transform="matrix(4.37114e-08 -1 -1 -4.37114e-08 488.657 43.4563)" fill="#E9376F"/>
<circle r="2.51823" transform="matrix(4.37114e-08 -1 -1 -4.37114e-08 576.794 43.4563)" fill="#E9376F"/>
<circle r="2.51823" transform="matrix(4.37114e-08 -1 -1 -4.37114e-08 488.657 34.6427)" fill="#E9376F"/>
<circle r="2.51823" transform="matrix(4.37114e-08 -1 -1 -4.37114e-08 576.794 34.6427)" fill="#E9376F"/>
<circle r="2.51823" transform="matrix(4.37114e-08 -1 -1 -4.37114e-08 488.657 25.8289)" fill="#E9376F"/>
<circle r="2.51823" transform="matrix(4.37114e-08 -1 -1 -4.37114e-08 576.794 25.8289)" fill="#E9376F"/>
<circle r="2.51823" transform="matrix(4.37114e-08 -1 -1 -4.37114e-08 488.657 17.0152)" fill="#E9376F"/>
<circle r="2.51823" transform="matrix(4.37114e-08 -1 -1 -4.37114e-08 576.794 17.0152)" fill="#E9376F"/>
<circle r="2.51823" transform="matrix(4.37114e-08 -1 -1 -4.37114e-08 488.657 8.20138)" fill="#E9376F"/>
<circle r="2.51823" transform="matrix(4.37114e-08 -1 -1 -4.37114e-08 576.794 8.20138)" fill="#E9376F"/>
<circle r="2.51823" transform="matrix(4.37114e-08 -1 -1 -4.37114e-08 488.657 -0.61222)" fill="#E9376F"/>
<circle r="2.51823" transform="matrix(4.37114e-08 -1 -1 -4.37114e-08 576.794 -0.61222)" fill="#E9376F"/>
<circle r="2.51823" transform="matrix(4.37114e-08 -1 -1 -4.37114e-08 532.725 65.4911)" fill="#E9376F"/>
<circle r="2.51823" transform="matrix(4.37114e-08 -1 -1 -4.37114e-08 532.725 56.6775)" fill="#E9376F"/>
<circle r="2.51823" transform="matrix(4.37114e-08 -1 -1 -4.37114e-08 532.725 47.8634)" fill="#E9376F"/>
<circle r="2.51823" transform="matrix(4.37114e-08 -1 -1 -4.37114e-08 532.725 39.05)" fill="#E9376F"/>
<circle r="2.51823" transform="matrix(4.37114e-08 -1 -1 -4.37114e-08 532.725 30.236)" fill="#E9376F"/>
<circle r="2.51823" transform="matrix(4.37114e-08 -1 -1 -4.37114e-08 532.725 21.4222)" fill="#E9376F"/>
<circle r="2.51823" transform="matrix(4.37114e-08 -1 -1 -4.37114e-08 532.725 12.6086)" fill="#E9376F"/>
<circle r="2.51823" transform="matrix(4.37114e-08 -1 -1 -4.37114e-08 532.725 3.79452)" fill="#E9376F"/>
<circle r="2.51823" transform="matrix(4.37114e-08 -1 -1 -4.37114e-08 550.353 65.4911)" fill="#E9376F"/>
<circle r="2.51823" transform="matrix(4.37114e-08 -1 -1 -4.37114e-08 550.353 56.6775)" fill="#E9376F"/>
<circle r="2.51823" transform="matrix(4.37114e-08 -1 -1 -4.37114e-08 550.353 47.8634)" fill="#E9376F"/>
<circle r="2.51823" transform="matrix(4.37114e-08 -1 -1 -4.37114e-08 550.353 39.05)" fill="#E9376F"/>
<circle r="2.51823" transform="matrix(4.37114e-08 -1 -1 -4.37114e-08 550.353 30.236)" fill="#E9376F"/>
<circle r="2.51823" transform="matrix(4.37114e-08 -1 -1 -4.37114e-08 550.353 21.4222)" fill="#E9376F"/>
<circle r="2.51823" transform="matrix(4.37114e-08 -1 -1 -4.37114e-08 550.353 12.6086)" fill="#E9376F"/>
<circle r="2.51823" transform="matrix(4.37114e-08 -1 -1 -4.37114e-08 550.353 3.79452)" fill="#E9376F"/>
<circle r="2.51823" transform="matrix(4.37114e-08 -1 -1 -4.37114e-08 515.098 65.4911)" fill="#E9376F"/>
<circle r="2.51823" transform="matrix(4.37114e-08 -1 -1 -4.37114e-08 515.098 56.6775)" fill="#E9376F"/>
<circle r="2.51823" transform="matrix(4.37114e-08 -1 -1 -4.37114e-08 515.098 47.8634)" fill="#E9376F"/>
<circle r="2.51823" transform="matrix(4.37114e-08 -1 -1 -4.37114e-08 515.098 39.05)" fill="#E9376F"/>
<circle r="2.51823" transform="matrix(4.37114e-08 -1 -1 -4.37114e-08 515.098 30.236)" fill="#E9376F"/>
<circle r="2.51823" transform="matrix(4.37114e-08 -1 -1 -4.37114e-08 515.098 21.4222)" fill="#E9376F"/>
<circle r="2.51823" transform="matrix(4.37114e-08 -1 -1 -4.37114e-08 515.098 12.6086)" fill="#E9376F"/>
<circle r="2.51823" transform="matrix(4.37114e-08 -1 -1 -4.37114e-08 515.098 3.79452)" fill="#E9376F"/>
<circle r="2.51823" transform="matrix(4.37114e-08 -1 -1 -4.37114e-08 497.47 65.4911)" fill="#E9376F"/>
<circle r="2.51823" transform="matrix(4.37114e-08 -1 -1 -4.37114e-08 585.609 65.4911)" fill="#E9376F"/>
<circle r="2.51823" transform="matrix(4.37114e-08 -1 -1 -4.37114e-08 497.47 56.6775)" fill="#E9376F"/>
<circle r="2.51823" transform="matrix(4.37114e-08 -1 -1 -4.37114e-08 585.609 56.6775)" fill="#E9376F"/>
<circle r="2.51823" transform="matrix(4.37114e-08 -1 -1 -4.37114e-08 497.47 47.8634)" fill="#E9376F"/>
<circle r="2.51823" transform="matrix(4.37114e-08 -1 -1 -4.37114e-08 585.609 47.8634)" fill="#E9376F"/>
<circle r="2.51823" transform="matrix(4.37114e-08 -1 -1 -4.37114e-08 497.47 39.05)" fill="#E9376F"/>
<circle r="2.51823" transform="matrix(4.37114e-08 -1 -1 -4.37114e-08 585.609 39.05)" fill="#E9376F"/>
<circle r="2.51823" transform="matrix(4.37114e-08 -1 -1 -4.37114e-08 497.47 30.236)" fill="#E9376F"/>
<circle r="2.51823" transform="matrix(4.37114e-08 -1 -1 -4.37114e-08 585.608 30.236)" fill="#E9376F"/>
<circle r="2.51823" transform="matrix(4.37114e-08 -1 -1 -4.37114e-08 497.47 21.4222)" fill="#E9376F"/>
<circle r="2.51823" transform="matrix(4.37114e-08 -1 -1 -4.37114e-08 585.608 21.4222)" fill="#E9376F"/>
<circle r="2.51823" transform="matrix(4.37114e-08 -1 -1 -4.37114e-08 497.47 12.6086)" fill="#E9376F"/>
<circle r="2.51823" transform="matrix(4.37114e-08 -1 -1 -4.37114e-08 585.608 12.6086)" fill="#E9376F"/>
<circle r="2.51823" transform="matrix(4.37114e-08 -1 -1 -4.37114e-08 497.47 3.79452)" fill="#E9376F"/>
<circle r="2.51823" transform="matrix(4.37114e-08 -1 -1 -4.37114e-08 585.608 3.79452)" fill="#E9376F"/>
<circle r="2.51823" transform="matrix(4.37114e-08 -1 -1 -4.37114e-08 479.843 65.4911)" fill="#E9376F"/>
<circle r="2.51823" transform="matrix(4.37114e-08 -1 -1 -4.37114e-08 567.98 65.4911)" fill="#E9376F"/>
<circle r="2.51823" transform="matrix(4.37114e-08 -1 -1 -4.37114e-08 479.843 56.6775)" fill="#E9376F"/>
<circle r="2.51823" transform="matrix(4.37114e-08 -1 -1 -4.37114e-08 567.98 56.6775)" fill="#E9376F"/>
<circle r="2.51823" transform="matrix(4.37114e-08 -1 -1 -4.37114e-08 479.843 47.8634)" fill="#E9376F"/>
<circle r="2.51823" transform="matrix(4.37114e-08 -1 -1 -4.37114e-08 567.98 47.8634)" fill="#E9376F"/>
<circle r="2.51823" transform="matrix(4.37114e-08 -1 -1 -4.37114e-08 479.843 39.05)" fill="#E9376F"/>
<circle r="2.51823" transform="matrix(4.37114e-08 -1 -1 -4.37114e-08 567.98 39.05)" fill="#E9376F"/>
<circle r="2.51823" transform="matrix(4.37114e-08 -1 -1 -4.37114e-08 479.843 30.236)" fill="#E9376F"/>
<circle r="2.51823" transform="matrix(4.37114e-08 -1 -1 -4.37114e-08 567.98 30.236)" fill="#E9376F"/>
<circle r="2.51823" transform="matrix(4.37114e-08 -1 -1 -4.37114e-08 479.843 21.4222)" fill="#E9376F"/>
<circle r="2.51823" transform="matrix(4.37114e-08 -1 -1 -4.37114e-08 567.98 21.4222)" fill="#E9376F"/>
<circle r="2.51823" transform="matrix(4.37114e-08 -1 -1 -4.37114e-08 479.843 12.6086)" fill="#E9376F"/>
<circle r="2.51823" transform="matrix(4.37114e-08 -1 -1 -4.37114e-08 567.98 12.6086)" fill="#E9376F"/>
<circle r="2.51823" transform="matrix(4.37114e-08 -1 -1 -4.37114e-08 479.843 3.79452)" fill="#E9376F"/>
<circle r="2.51823" transform="matrix(4.37114e-08 -1 -1 -4.37114e-08 567.98 3.79452)" fill="#E9376F"/>
</g>
<path fill-rule="evenodd" clip-rule="evenodd" d="M101.885 89.4874L97.3356 89.4874L97.3356 94.1718L96.5146 94.1718L96.5146 89.4874L91.9648 89.4874L91.9648 88.642L96.5146 88.642L96.5146 83.9578L97.3356 83.9578L97.3356 88.642L101.885 88.6421L101.885 89.4874Z" fill="white"/>
<path fill-rule="evenodd" clip-rule="evenodd" d="M75.903 89.4874L71.3532 89.4874L71.3532 94.1718L70.5322 94.1718L70.5322 89.4874L65.9824 89.4874L65.9824 88.642L70.5322 88.642L70.5322 83.9578L71.3532 83.9578L71.3532 88.642L75.903 88.6421L75.903 89.4874Z" fill="white"/>
<path fill-rule="evenodd" clip-rule="evenodd" d="M75.903 62.5086L71.3532 62.5086L71.3532 67.193L70.5322 67.193L70.5322 62.5086L65.9824 62.5086L65.9824 61.6633L70.5322 61.6633L70.5322 56.9791L71.3532 56.9791L71.3532 61.6633L75.903 61.6633L75.903 62.5086Z" fill="white"/>
<path fill-rule="evenodd" clip-rule="evenodd" d="M101.885 62.5089L97.3356 62.5089L97.3356 67.1932L96.5146 67.1932L96.5146 62.5089L91.9648 62.5089L91.9648 61.6635L96.5146 61.6635L96.5146 56.9793L97.3356 56.9793L97.3356 61.6635L101.885 61.6635L101.885 62.5089Z" fill="white"/>
<path fill-rule="evenodd" clip-rule="evenodd" d="M131.628 36.6217L127.079 36.6217L127.079 41.306L126.258 41.306L126.258 36.6217L121.708 36.6217L121.708 35.7763L126.258 35.7763L126.258 31.0921L127.079 31.0921L127.079 35.7763L131.628 35.7763L131.628 36.6217Z" fill="white"/>
<path fill-rule="evenodd" clip-rule="evenodd" d="M130.568 62.5086L126.018 62.5086L126.018 67.193L125.197 67.193L125.197 62.5086L120.647 62.5086L120.647 61.6633L125.197 61.6633L125.197 56.9791L126.018 56.9791L126.018 61.6633L130.568 61.6633L130.568 62.5086Z" fill="white"/>
<path fill-rule="evenodd" clip-rule="evenodd" d="M101.885 35.5296L97.3356 35.5296L97.3356 40.214L96.5146 40.214L96.5146 35.5296L91.9648 35.5296L91.9648 34.6843L96.5146 34.6843L96.5146 30.0001L97.3356 30.0001L97.3356 34.6843L101.885 34.6843L101.885 35.5296Z" fill="white"/>
<path fill-rule="evenodd" clip-rule="evenodd" d="M75.903 116.238L71.3532 116.238L71.3532 120.922L70.5322 120.922L70.5322 116.238L65.9824 116.238L65.9824 115.392L70.5322 115.392L70.5322 110.708L71.3532 110.708L71.3532 115.392L75.903 115.392L75.903 116.238Z" fill="white"/>
<path fill-rule="evenodd" clip-rule="evenodd" d="M49.9207 116.238L45.3709 116.238L45.3709 120.922L44.5499 120.922L44.5499 116.238L40.0001 116.238L40.0001 115.392L44.5499 115.392L44.5499 110.708L45.3709 110.708L45.3709 115.392L49.9207 115.392L49.9207 116.238Z" fill="white"/>
<path fill-rule="evenodd" clip-rule="evenodd" d="M49.9207 142.989L45.3709 142.989L45.3709 147.673L44.5499 147.673L44.5499 142.989L40.0001 142.989L40.0001 142.144L44.5499 142.144L44.5499 137.459L45.3709 137.459L45.3709 142.144L49.9207 142.144L49.9207 142.989Z" fill="white"/>
<path fill-rule="evenodd" clip-rule="evenodd" d="M49.9207 89.4874L45.3709 89.4874L45.3709 94.1718L44.5499 94.1718L44.5499 89.4874L40.0001 89.4874L40.0001 88.642L44.5499 88.642L44.5499 83.9578L45.3709 83.9578L45.3709 88.642L49.9207 88.6421L49.9207 89.4874Z" fill="white"/>
</g>
<defs>
<linearGradient id="paint0_linear_240_4130" x1="151.561" y1="396.004" x2="-4.6608" y2="458.062" gradientUnits="userSpaceOnUse">
<stop stop-color="#E9366E"/>
<stop offset="1" stop-color="#F29A0B"/>
</linearGradient>
<linearGradient id="paint1_linear_240_4130" x1="663.629" y1="217.257" x2="717.589" y2="178.106" gradientUnits="userSpaceOnUse">
<stop stop-color="white"/>
<stop offset="1" stop-color="#F29A0B"/>
</linearGradient>
<linearGradient id="paint2_linear_240_4130" x1="663.629" y1="227.29" x2="717.598" y2="188.141" gradientUnits="userSpaceOnUse">
<stop stop-color="white"/>
<stop offset="1" stop-color="#F29A0B"/>
</linearGradient>
<linearGradient id="paint3_linear_240_4130" x1="663.629" y1="237.322" x2="717.598" y2="198.173" gradientUnits="userSpaceOnUse">
<stop stop-color="white"/>
<stop offset="1" stop-color="#F29A0B"/>
</linearGradient>
<linearGradient id="paint4_linear_240_4130" x1="663.629" y1="247.345" x2="717.589" y2="208.194" gradientUnits="userSpaceOnUse">
<stop stop-color="white"/>
<stop offset="1" stop-color="#F29A0B"/>
</linearGradient>
<linearGradient id="paint5_linear_240_4130" x1="663.629" y1="257.378" x2="717.598" y2="218.229" gradientUnits="userSpaceOnUse">
<stop stop-color="white"/>
<stop offset="1" stop-color="#F29A0B"/>
</linearGradient>
<linearGradient id="paint6_linear_240_4130" x1="663.629" y1="267.41" x2="717.598" y2="228.261" gradientUnits="userSpaceOnUse">
<stop stop-color="white"/>
<stop offset="1" stop-color="#F29A0B"/>
</linearGradient>
<linearGradient id="paint7_linear_240_4130" x1="663.629" y1="277.431" x2="717.589" y2="238.279" gradientUnits="userSpaceOnUse">
<stop stop-color="white"/>
<stop offset="1" stop-color="#F29A0B"/>
</linearGradient>
<linearGradient id="paint8_linear_240_4130" x1="663.629" y1="287.453" x2="717.589" y2="248.302" gradientUnits="userSpaceOnUse">
<stop stop-color="white"/>
<stop offset="1" stop-color="#F29A0B"/>
</linearGradient>
<linearGradient id="paint9_linear_240_4130" x1="663.629" y1="297.486" x2="717.598" y2="258.337" gradientUnits="userSpaceOnUse">
<stop stop-color="white"/>
<stop offset="1" stop-color="#F29A0B"/>
</linearGradient>
<linearGradient id="paint10_linear_240_4130" x1="663.629" y1="307.518" x2="717.598" y2="268.369" gradientUnits="userSpaceOnUse">
<stop stop-color="white"/>
<stop offset="1" stop-color="#F29A0B"/>
</linearGradient>
</defs>
</svg>
